<?xml version="1.0" encoding="utf-8" standalone="no"?>
<!DOCTYPE svg PUBLIC "-//W3C//DTD SVG 1.1//EN"
  "http://www.w3.org/Graphics/SVG/1.1/DTD/svg11.dtd">
<svg xmlns:xlink="http://www.w3.org/1999/xlink" width="460.8pt" height="345.6pt" viewBox="0 0 460.8 345.6" xmlns="http://www.w3.org/2000/svg" version="1.1">
 <metadata>
  <rdf:RDF xmlns:dc="http://purl.org/dc/elements/1.1/" xmlns:cc="http://creativecommons.org/ns#" xmlns:rdf="http://www.w3.org/1999/02/22-rdf-syntax-ns#">
   <cc:Work>
    <dc:type rdf:resource="http://purl.org/dc/dcmitype/StillImage"/>
    <dc:date>2023-05-15T10:12:46.923559</dc:date>
    <dc:format>image/svg+xml</dc:format>
    <dc:creator>
     <cc:Agent>
      <dc:title>Matplotlib v3.5.2, https://matplotlib.org/</dc:title>
     </cc:Agent>
    </dc:creator>
   </cc:Work>
  </rdf:RDF>
 </metadata>
 <defs>
  <style type="text/css">*{stroke-linejoin: round; stroke-linecap: butt}</style>
 </defs>
 <g id="figure_1">
  <g id="patch_1">
   <path d="M 0 345.6 
L 460.8 345.6 
L 460.8 0 
L 0 0 
z
" style="fill: #ffffff"/>
  </g>
  <g id="axes_1">
   <g id="patch_2">
    <path d="M 57.6 307.584 
L 414.72 307.584 
L 414.72 41.472 
L 57.6 41.472 
z
" style="fill: #ffffff"/>
   </g>
   <g id="PathCollection_1">
    <defs>
     <path id="m413f0eb6e2" d="M 0 3 
C 0.795609 3 1.55874 2.683901 2.12132 2.12132 
C 2.683901 1.55874 3 0.795609 3 0 
C 3 -0.795609 2.683901 -1.55874 2.12132 -2.12132 
C 1.55874 -2.683901 0.795609 -3 0 -3 
C -0.795609 -3 -1.55874 -2.683901 -2.12132 -2.12132 
C -2.683901 -1.55874 -3 -0.795609 -3 0 
C -3 0.795609 -2.683901 1.55874 -2.12132 2.12132 
C -1.55874 2.683901 -0.795609 3 0 3 
z
" style="stroke: #1f77b4"/>
    </defs>
    <g clip-path="url(#paf248c1ce4)">
     <use xlink:href="#m413f0eb6e2" x="73.832727" y="260.128863" style="fill: #1f77b4; stroke: #1f77b4"/>
     <use xlink:href="#m413f0eb6e2" x="114.727778" y="264.582875" style="fill: #1f77b4; stroke: #1f77b4"/>
     <use xlink:href="#m413f0eb6e2" x="143.743278" y="267.743046" style="fill: #1f77b4; stroke: #1f77b4"/>
     <use xlink:href="#m413f0eb6e2" x="166.249449" y="270.194267" style="fill: #1f77b4; stroke: #1f77b4"/>
     <use xlink:href="#m413f0eb6e2" x="184.638329" y="272.197059" style="fill: #1f77b4; stroke: #1f77b4"/>
     <use xlink:href="#m413f0eb6e2" x="200.185906" y="273.890396" style="fill: #1f77b4; stroke: #1f77b4"/>
     <use xlink:href="#m413f0eb6e2" x="213.653829" y="275.357228" style="fill: #1f77b4; stroke: #1f77b4"/>
     <use xlink:href="#m413f0eb6e2" x="225.53338" y="276.651073" style="fill: #1f77b4; stroke: #1f77b4"/>
     <use xlink:href="#m413f0eb6e2" x="236.16" y="277.808457" style="fill: #1f77b4; stroke: #1f77b4"/>
     <use xlink:href="#m413f0eb6e2" x="245.772947" y="278.855425" style="fill: #1f77b4; stroke: #1f77b4"/>
     <use xlink:href="#m413f0eb6e2" x="254.54888" y="279.81124" style="fill: #1f77b4; stroke: #1f77b4"/>
     <use xlink:href="#m413f0eb6e2" x="262.621956" y="280.690504" style="fill: #1f77b4; stroke: #1f77b4"/>
     <use xlink:href="#m413f0eb6e2" x="270.096457" y="281.504586" style="fill: #1f77b4; stroke: #1f77b4"/>
     <use xlink:href="#m413f0eb6e2" x="277.055051" y="282.262454" style="fill: #1f77b4; stroke: #1f77b4"/>
     <use xlink:href="#m413f0eb6e2" x="283.564381" y="282.971411" style="fill: #1f77b4; stroke: #1f77b4"/>
     <use xlink:href="#m413f0eb6e2" x="289.678956" y="283.637364" style="fill: #1f77b4; stroke: #1f77b4"/>
     <use xlink:href="#m413f0eb6e2" x="295.443931" y="284.265246" style="fill: #1f77b4; stroke: #1f77b4"/>
     <use xlink:href="#m413f0eb6e2" x="300.89713" y="284.859172" style="fill: #1f77b4; stroke: #1f77b4"/>
     <use xlink:href="#m413f0eb6e2" x="306.070551" y="285.422616" style="fill: #1f77b4; stroke: #1f77b4"/>
     <use xlink:href="#m413f0eb6e2" x="310.991508" y="285.958593" style="fill: #1f77b4; stroke: #1f77b4"/>
     <use xlink:href="#m413f0eb6e2" x="315.683498" y="286.469603" style="fill: #1f77b4; stroke: #1f77b4"/>
     <use xlink:href="#m413f0eb6e2" x="320.166885" y="286.957931" style="fill: #1f77b4; stroke: #1f77b4"/>
     <use xlink:href="#m413f0eb6e2" x="324.459431" y="287.425427" style="fill: #1f77b4; stroke: #1f77b4"/>
     <use xlink:href="#m413f0eb6e2" x="328.576722" y="287.873855" style="fill: #1f77b4; stroke: #1f77b4"/>
     <use xlink:href="#m413f0eb6e2" x="332.532507" y="288.304702" style="fill: #1f77b4; stroke: #1f77b4"/>
     <use xlink:href="#m413f0eb6e2" x="336.338982" y="288.719249" style="fill: #1f77b4; stroke: #1f77b4"/>
     <use xlink:href="#m413f0eb6e2" x="340.007008" y="289.118726" style="fill: #1f77b4; stroke: #1f77b4"/>
     <use xlink:href="#m413f0eb6e2" x="343.546305" y="289.504221" style="fill: #1f77b4; stroke: #1f77b4"/>
     <use xlink:href="#m413f0eb6e2" x="346.965602" y="289.876647" style="fill: #1f77b4; stroke: #1f77b4"/>
     <use xlink:href="#m413f0eb6e2" x="350.27277" y="290.236822" style="fill: #1f77b4; stroke: #1f77b4"/>
     <use xlink:href="#m413f0eb6e2" x="353.474932" y="290.585608" style="fill: #1f77b4; stroke: #1f77b4"/>
     <use xlink:href="#m413f0eb6e2" x="356.578549" y="290.923605" style="fill: #1f77b4; stroke: #1f77b4"/>
     <use xlink:href="#m413f0eb6e2" x="359.589507" y="291.251576" style="fill: #1f77b4; stroke: #1f77b4"/>
     <use xlink:href="#m413f0eb6e2" x="362.513179" y="291.569965" style="fill: #1f77b4; stroke: #1f77b4"/>
     <use xlink:href="#m413f0eb6e2" x="365.354482" y="291.879496" style="fill: #1f77b4; stroke: #1f77b4"/>
     <use xlink:href="#m413f0eb6e2" x="368.117932" y="292.180377" style="fill: #1f77b4; stroke: #1f77b4"/>
     <use xlink:href="#m413f0eb6e2" x="370.807681" y="292.473327" style="fill: #1f77b4; stroke: #1f77b4"/>
     <use xlink:href="#m413f0eb6e2" x="373.427558" y="292.758761" style="fill: #1f77b4; stroke: #1f77b4"/>
     <use xlink:href="#m413f0eb6e2" x="375.981102" y="293.036837" style="fill: #1f77b4; stroke: #1f77b4"/>
     <use xlink:href="#m413f0eb6e2" x="378.471589" y="293.308046" style="fill: #1f77b4; stroke: #1f77b4"/>
     <use xlink:href="#m413f0eb6e2" x="380.902059" y="293.572776" style="fill: #1f77b4; stroke: #1f77b4"/>
     <use xlink:href="#m413f0eb6e2" x="383.275336" y="293.831257" style="fill: #1f77b4; stroke: #1f77b4"/>
     <use xlink:href="#m413f0eb6e2" x="385.594049" y="294.083795" style="fill: #1f77b4; stroke: #1f77b4"/>
     <use xlink:href="#m413f0eb6e2" x="387.860653" y="294.330696" style="fill: #1f77b4; stroke: #1f77b4"/>
     <use xlink:href="#m413f0eb6e2" x="390.077437" y="294.572096" style="fill: #1f77b4; stroke: #1f77b4"/>
     <use xlink:href="#m413f0eb6e2" x="392.246544" y="294.80834" style="fill: #1f77b4; stroke: #1f77b4"/>
     <use xlink:href="#m413f0eb6e2" x="394.369982" y="295.039648" style="fill: #1f77b4; stroke: #1f77b4"/>
     <use xlink:href="#m413f0eb6e2" x="396.449636" y="295.266112" style="fill: #1f77b4; stroke: #1f77b4"/>
     <use xlink:href="#m413f0eb6e2" x="398.487273" y="295.488" style="fill: #1f77b4; stroke: #1f77b4"/>
    </g>
   </g>
   <g id="PathCollection_2">
    <defs>
     <path id="m8f1421d1fe" d="M 0 3 
C 0.795609 3 1.55874 2.683901 2.12132 2.12132 
C 2.683901 1.55874 3 0.795609 3 0 
C 3 -0.795609 2.683901 -1.55874 2.12132 -2.12132 
C 1.55874 -2.683901 0.795609 -3 0 -3 
C -0.795609 -3 -1.55874 -2.683901 -2.12132 -2.12132 
C -2.683901 -1.55874 -3 -0.795609 -3 0 
C -3 0.795609 -2.683901 1.55874 -2.12132 2.12132 
C -1.55874 2.683901 -0.795609 3 0 3 
z
" style="stroke: #d62728"/>
    </defs>
    <g clip-path="url(#paf248c1ce4)">
     <use xlink:href="#m8f1421d1fe" x="73.832727" y="53.918911" style="fill: #d62728; stroke: #d62728"/>
     <use xlink:href="#m8f1421d1fe" x="114.727778" y="66.964883" style="fill: #d62728; stroke: #d62728"/>
     <use xlink:href="#m8f1421d1fe" x="143.743278" y="76.335206" style="fill: #d62728; stroke: #d62728"/>
     <use xlink:href="#m8f1421d1fe" x="166.249449" y="83.637936" style="fill: #d62728; stroke: #d62728"/>
     <use xlink:href="#m8f1421d1fe" x="184.638329" y="89.618667" style="fill: #d62728; stroke: #d62728"/>
     <use xlink:href="#m8f1421d1fe" x="200.185906" y="94.682015" style="fill: #d62728; stroke: #d62728"/>
     <use xlink:href="#m8f1421d1fe" x="213.653829" y="99.071707" style="fill: #d62728; stroke: #d62728"/>
     <use xlink:href="#m8f1421d1fe" x="225.53338" y="102.945815" style="fill: #d62728; stroke: #d62728"/>
     <use xlink:href="#m8f1421d1fe" x="236.16" y="106.412652" style="fill: #d62728; stroke: #d62728"/>
     <use xlink:href="#m8f1421d1fe" x="245.772947" y="109.549661" style="fill: #d62728; stroke: #d62728"/>
     <use xlink:href="#m8f1421d1fe" x="254.54888" y="112.414123" style="fill: #d62728; stroke: #d62728"/>
     <use xlink:href="#m8f1421d1fe" x="262.621956" y="115.049595" style="fill: #d62728; stroke: #d62728"/>
     <use xlink:href="#m8f1421d1fe" x="270.096457" y="117.489969" style="fill: #d62728; stroke: #d62728"/>
     <use xlink:href="#m8f1421d1fe" x="277.055051" y="119.76213" style="fill: #d62728; stroke: #d62728"/>
     <use xlink:href="#m8f1421d1fe" x="283.564381" y="121.88777" style="fill: #d62728; stroke: #d62728"/>
     <use xlink:href="#m8f1421d1fe" x="289.678956" y="123.884635" style="fill: #d62728; stroke: #d62728"/>
     <use xlink:href="#m8f1421d1fe" x="295.443931" y="125.767435" style="fill: #d62728; stroke: #d62728"/>
     <use xlink:href="#m8f1421d1fe" x="300.89713" y="127.548496" style="fill: #d62728; stroke: #d62728"/>
     <use xlink:href="#m8f1421d1fe" x="306.070551" y="129.238246" style="fill: #d62728; stroke: #d62728"/>
     <use xlink:href="#m8f1421d1fe" x="310.991508" y="130.845591" style="fill: #d62728; stroke: #d62728"/>
     <use xlink:href="#m8f1421d1fe" x="315.683498" y="132.378194" style="fill: #d62728; stroke: #d62728"/>
     <use xlink:href="#m8f1421d1fe" x="320.166885" y="133.842696" style="fill: #d62728; stroke: #d62728"/>
     <use xlink:href="#m8f1421d1fe" x="324.459431" y="135.24489" style="fill: #d62728; stroke: #d62728"/>
     <use xlink:href="#m8f1421d1fe" x="328.576722" y="136.589863" style="fill: #d62728; stroke: #d62728"/>
     <use xlink:href="#m8f1421d1fe" x="332.532507" y="137.882101" style="fill: #d62728; stroke: #d62728"/>
     <use xlink:href="#m8f1421d1fe" x="336.338982" y="139.125582" style="fill: #d62728; stroke: #d62728"/>
     <use xlink:href="#m8f1421d1fe" x="340.007008" y="140.323852" style="fill: #d62728; stroke: #d62728"/>
     <use xlink:href="#m8f1421d1fe" x="343.546305" y="141.480083" style="fill: #d62728; stroke: #d62728"/>
     <use xlink:href="#m8f1421d1fe" x="346.965602" y="142.597125" style="fill: #d62728; stroke: #d62728"/>
     <use xlink:href="#m8f1421d1fe" x="350.27277" y="143.677547" style="fill: #d62728; stroke: #d62728"/>
     <use xlink:href="#m8f1421d1fe" x="353.474932" y="144.723673" style="fill: #d62728; stroke: #d62728"/>
     <use xlink:href="#m8f1421d1fe" x="356.578549" y="145.737614" style="fill: #d62728; stroke: #d62728"/>
     <use xlink:href="#m8f1421d1fe" x="359.589507" y="146.72129" style="fill: #d62728; stroke: #d62728"/>
     <use xlink:href="#m8f1421d1fe" x="362.513179" y="147.676457" style="fill: #d62728; stroke: #d62728"/>
     <use xlink:href="#m8f1421d1fe" x="365.354482" y="148.60472" style="fill: #d62728; stroke: #d62728"/>
     <use xlink:href="#m8f1421d1fe" x="368.117932" y="149.507553" style="fill: #d62728; stroke: #d62728"/>
     <use xlink:href="#m8f1421d1fe" x="370.807681" y="150.386312" style="fill: #d62728; stroke: #d62728"/>
     <use xlink:href="#m8f1421d1fe" x="373.427558" y="151.242248" style="fill: #d62728; stroke: #d62728"/>
     <use xlink:href="#m8f1421d1fe" x="375.981102" y="152.076516" style="fill: #d62728; stroke: #d62728"/>
     <use xlink:href="#m8f1421d1fe" x="378.471589" y="152.890186" style="fill: #d62728; stroke: #d62728"/>
     <use xlink:href="#m8f1421d1fe" x="380.902059" y="153.68425" style="fill: #d62728; stroke: #d62728"/>
     <use xlink:href="#m8f1421d1fe" x="383.275336" y="154.459632" style="fill: #d62728; stroke: #d62728"/>
     <use xlink:href="#m8f1421d1fe" x="385.594049" y="155.21719" style="fill: #d62728; stroke: #d62728"/>
     <use xlink:href="#m8f1421d1fe" x="387.860653" y="155.957724" style="fill: #d62728; stroke: #d62728"/>
     <use xlink:href="#m8f1421d1fe" x="390.077437" y="156.681984" style="fill: #d62728; stroke: #d62728"/>
     <use xlink:href="#m8f1421d1fe" x="392.246544" y="157.390669" style="fill: #d62728; stroke: #d62728"/>
     <use xlink:href="#m8f1421d1fe" x="394.369982" y="158.084435" style="fill: #d62728; stroke: #d62728"/>
     <use xlink:href="#m8f1421d1fe" x="396.449636" y="158.763897" style="fill: #d62728; stroke: #d62728"/>
     <use xlink:href="#m8f1421d1fe" x="398.487273" y="159.429633" style="fill: #d62728; stroke: #d62728"/>
    </g>
   </g>
   <g id="matplotlib.axis_1">
    <g id="xtick_1">
     <g id="line2d_1">
      <path d="M 166.249449 307.584 
L 166.249449 41.472 
" clip-path="url(#paf248c1ce4)" style="fill: none; stroke: #b0b0b0; stroke-width: 0.8; stroke-linecap: square"/>
     </g>
     <g id="line2d_2">
      <defs>
       <path id="m40111d785c" d="M 0 0 
L 0 3.5 
" style="stroke: #000000; stroke-width: 0.8"/>
      </defs>
      <g>
       <use xlink:href="#m40111d785c" x="166.249449" y="307.584" style="stroke: #000000; stroke-width: 0.8"/>
      </g>
     </g>
     <g id="text_1">
      <!-- $\mathdefault{10^{1}}$ -->
      <g transform="translate(157.449449 322.182437)scale(0.1 -0.1)">
       <defs>
        <path id="DejaVuSans-31" d="M 794 531 
L 1825 531 
L 1825 4091 
L 703 3866 
L 703 4441 
L 1819 4666 
L 2450 4666 
L 2450 531 
L 3481 531 
L 3481 0 
L 794 0 
L 794 531 
z
" transform="scale(0.015625)"/>
        <path id="DejaVuSans-30" d="M 2034 4250 
Q 1547 4250 1301 3770 
Q 1056 3291 1056 2328 
Q 1056 1369 1301 889 
Q 1547 409 2034 409 
Q 2525 409 2770 889 
Q 3016 1369 3016 2328 
Q 3016 3291 2770 3770 
Q 2525 4250 2034 4250 
z
M 2034 4750 
Q 2819 4750 3233 4129 
Q 3647 3509 3647 2328 
Q 3647 1150 3233 529 
Q 2819 -91 2034 -91 
Q 1250 -91 836 529 
Q 422 1150 422 2328 
Q 422 3509 836 4129 
Q 1250 4750 2034 4750 
z
" transform="scale(0.015625)"/>
       </defs>
       <use xlink:href="#DejaVuSans-31" transform="translate(0 0.684375)"/>
       <use xlink:href="#DejaVuSans-30" transform="translate(63.623047 0.684375)"/>
       <use xlink:href="#DejaVuSans-31" transform="translate(128.203125 38.965625)scale(0.7)"/>
      </g>
     </g>
    </g>
    <g id="xtick_2">
     <g id="line2d_3">
      <path d="M 398.487273 307.584 
L 398.487273 41.472 
" clip-path="url(#paf248c1ce4)" style="fill: none; stroke: #b0b0b0; stroke-width: 0.8; stroke-linecap: square"/>
     </g>
     <g id="line2d_4">
      <g>
       <use xlink:href="#m40111d785c" x="398.487273" y="307.584" style="stroke: #000000; stroke-width: 0.8"/>
      </g>
     </g>
     <g id="text_2">
      <!-- $\mathdefault{10^{2}}$ -->
      <g transform="translate(389.687273 322.182437)scale(0.1 -0.1)">
       <defs>
        <path id="DejaVuSans-32" d="M 1228 531 
L 3431 531 
L 3431 0 
L 469 0 
L 469 531 
Q 828 903 1448 1529 
Q 2069 2156 2228 2338 
Q 2531 2678 2651 2914 
Q 2772 3150 2772 3378 
Q 2772 3750 2511 3984 
Q 2250 4219 1831 4219 
Q 1534 4219 1204 4116 
Q 875 4013 500 3803 
L 500 4441 
Q 881 4594 1212 4672 
Q 1544 4750 1819 4750 
Q 2544 4750 2975 4387 
Q 3406 4025 3406 3419 
Q 3406 3131 3298 2873 
Q 3191 2616 2906 2266 
Q 2828 2175 2409 1742 
Q 1991 1309 1228 531 
z
" transform="scale(0.015625)"/>
       </defs>
       <use xlink:href="#DejaVuSans-31" transform="translate(0 0.765625)"/>
       <use xlink:href="#DejaVuSans-30" transform="translate(63.623047 0.765625)"/>
       <use xlink:href="#DejaVuSans-32" transform="translate(128.203125 39.046875)scale(0.7)"/>
      </g>
     </g>
    </g>
    <g id="xtick_3">
     <g id="line2d_5">
      <defs>
       <path id="mc70dcb7d89" d="M 0 0 
L 0 2 
" style="stroke: #000000; stroke-width: 0.6"/>
      </defs>
      <g>
       <use xlink:href="#mc70dcb7d89" x="73.832727" y="307.584" style="stroke: #000000; stroke-width: 0.6"/>
      </g>
     </g>
    </g>
    <g id="xtick_4">
     <g id="line2d_6">
      <g>
       <use xlink:href="#mc70dcb7d89" x="96.338898" y="307.584" style="stroke: #000000; stroke-width: 0.6"/>
      </g>
     </g>
    </g>
    <g id="xtick_5">
     <g id="line2d_7">
      <g>
       <use xlink:href="#mc70dcb7d89" x="114.727778" y="307.584" style="stroke: #000000; stroke-width: 0.6"/>
      </g>
     </g>
    </g>
    <g id="xtick_6">
     <g id="line2d_8">
      <g>
       <use xlink:href="#mc70dcb7d89" x="130.275355" y="307.584" style="stroke: #000000; stroke-width: 0.6"/>
      </g>
     </g>
    </g>
    <g id="xtick_7">
     <g id="line2d_9">
      <g>
       <use xlink:href="#mc70dcb7d89" x="143.743278" y="307.584" style="stroke: #000000; stroke-width: 0.6"/>
      </g>
     </g>
    </g>
    <g id="xtick_8">
     <g id="line2d_10">
      <g>
       <use xlink:href="#mc70dcb7d89" x="155.622829" y="307.584" style="stroke: #000000; stroke-width: 0.6"/>
      </g>
     </g>
    </g>
    <g id="xtick_9">
     <g id="line2d_11">
      <g>
       <use xlink:href="#mc70dcb7d89" x="236.16" y="307.584" style="stroke: #000000; stroke-width: 0.6"/>
      </g>
     </g>
    </g>
    <g id="xtick_10">
     <g id="line2d_12">
      <g>
       <use xlink:href="#mc70dcb7d89" x="277.055051" y="307.584" style="stroke: #000000; stroke-width: 0.6"/>
      </g>
     </g>
    </g>
    <g id="xtick_11">
     <g id="line2d_13">
      <g>
       <use xlink:href="#mc70dcb7d89" x="306.070551" y="307.584" style="stroke: #000000; stroke-width: 0.6"/>
      </g>
     </g>
    </g>
    <g id="xtick_12">
     <g id="line2d_14">
      <g>
       <use xlink:href="#mc70dcb7d89" x="328.576722" y="307.584" style="stroke: #000000; stroke-width: 0.6"/>
      </g>
     </g>
    </g>
    <g id="xtick_13">
     <g id="line2d_15">
      <g>
       <use xlink:href="#mc70dcb7d89" x="346.965602" y="307.584" style="stroke: #000000; stroke-width: 0.6"/>
      </g>
     </g>
    </g>
    <g id="xtick_14">
     <g id="line2d_16">
      <g>
       <use xlink:href="#mc70dcb7d89" x="362.513179" y="307.584" style="stroke: #000000; stroke-width: 0.6"/>
      </g>
     </g>
    </g>
    <g id="xtick_15">
     <g id="line2d_17">
      <g>
       <use xlink:href="#mc70dcb7d89" x="375.981102" y="307.584" style="stroke: #000000; stroke-width: 0.6"/>
      </g>
     </g>
    </g>
    <g id="xtick_16">
     <g id="line2d_18">
      <g>
       <use xlink:href="#mc70dcb7d89" x="387.860653" y="307.584" style="stroke: #000000; stroke-width: 0.6"/>
      </g>
     </g>
    </g>
    <g id="text_3">
     <!-- $N$ -->
     <g transform="translate(232.41 335.860562)scale(0.1 -0.1)">
      <defs>
       <path id="DejaVuSans-Oblique-4e" d="M 1081 4666 
L 1931 4666 
L 3219 666 
L 4000 4666 
L 4616 4666 
L 3706 0 
L 2853 0 
L 1569 4025 
L 788 0 
L 172 0 
L 1081 4666 
z
" transform="scale(0.015625)"/>
      </defs>
      <use xlink:href="#DejaVuSans-Oblique-4e" transform="translate(0 0.09375)"/>
     </g>
    </g>
   </g>
   <g id="matplotlib.axis_2">
    <g id="ytick_1">
     <g id="line2d_19">
      <path d="M 57.6 260.459715 
L 414.72 260.459715 
" clip-path="url(#paf248c1ce4)" style="fill: none; stroke: #b0b0b0; stroke-width: 0.8; stroke-linecap: square"/>
     </g>
     <g id="line2d_20">
      <defs>
       <path id="mbe7e45a7b2" d="M 0 0 
L -3.5 0 
" style="stroke: #000000; stroke-width: 0.8"/>
      </defs>
      <g>
       <use xlink:href="#mbe7e45a7b2" x="57.6" y="260.459715" style="stroke: #000000; stroke-width: 0.8"/>
      </g>
     </g>
     <g id="text_4">
      <!-- $\mathdefault{10^{-9}}$ -->
      <g transform="translate(27.1 264.258934)scale(0.1 -0.1)">
       <defs>
        <path id="DejaVuSans-2212" d="M 678 2272 
L 4684 2272 
L 4684 1741 
L 678 1741 
L 678 2272 
z
" transform="scale(0.015625)"/>
        <path id="DejaVuSans-39" d="M 703 97 
L 703 672 
Q 941 559 1184 500 
Q 1428 441 1663 441 
Q 2288 441 2617 861 
Q 2947 1281 2994 2138 
Q 2813 1869 2534 1725 
Q 2256 1581 1919 1581 
Q 1219 1581 811 2004 
Q 403 2428 403 3163 
Q 403 3881 828 4315 
Q 1253 4750 1959 4750 
Q 2769 4750 3195 4129 
Q 3622 3509 3622 2328 
Q 3622 1225 3098 567 
Q 2575 -91 1691 -91 
Q 1453 -91 1209 -44 
Q 966 3 703 97 
z
M 1959 2075 
Q 2384 2075 2632 2365 
Q 2881 2656 2881 3163 
Q 2881 3666 2632 3958 
Q 2384 4250 1959 4250 
Q 1534 4250 1286 3958 
Q 1038 3666 1038 3163 
Q 1038 2656 1286 2365 
Q 1534 2075 1959 2075 
z
" transform="scale(0.015625)"/>
       </defs>
       <use xlink:href="#DejaVuSans-31" transform="translate(0 0.765625)"/>
       <use xlink:href="#DejaVuSans-30" transform="translate(63.623047 0.765625)"/>
       <use xlink:href="#DejaVuSans-2212" transform="translate(128.203125 39.046875)scale(0.7)"/>
       <use xlink:href="#DejaVuSans-39" transform="translate(186.855469 39.046875)scale(0.7)"/>
      </g>
     </g>
    </g>
    <g id="ytick_2">
     <g id="line2d_21">
      <path d="M 57.6 209.872178 
L 414.72 209.872178 
" clip-path="url(#paf248c1ce4)" style="fill: none; stroke: #b0b0b0; stroke-width: 0.8; stroke-linecap: square"/>
     </g>
     <g id="line2d_22">
      <g>
       <use xlink:href="#mbe7e45a7b2" x="57.6" y="209.872178" style="stroke: #000000; stroke-width: 0.8"/>
      </g>
     </g>
     <g id="text_5">
      <!-- $\mathdefault{10^{-7}}$ -->
      <g transform="translate(27.1 213.671397)scale(0.1 -0.1)">
       <defs>
        <path id="DejaVuSans-37" d="M 525 4666 
L 3525 4666 
L 3525 4397 
L 1831 0 
L 1172 0 
L 2766 4134 
L 525 4134 
L 525 4666 
z
" transform="scale(0.015625)"/>
       </defs>
       <use xlink:href="#DejaVuSans-31" transform="translate(0 0.684375)"/>
       <use xlink:href="#DejaVuSans-30" transform="translate(63.623047 0.684375)"/>
       <use xlink:href="#DejaVuSans-2212" transform="translate(128.203125 38.965625)scale(0.7)"/>
       <use xlink:href="#DejaVuSans-37" transform="translate(186.855469 38.965625)scale(0.7)"/>
      </g>
     </g>
    </g>
    <g id="ytick_3">
     <g id="line2d_23">
      <path d="M 57.6 159.28464 
L 414.72 159.28464 
" clip-path="url(#paf248c1ce4)" style="fill: none; stroke: #b0b0b0; stroke-width: 0.8; stroke-linecap: square"/>
     </g>
     <g id="line2d_24">
      <g>
       <use xlink:href="#mbe7e45a7b2" x="57.6" y="159.28464" style="stroke: #000000; stroke-width: 0.8"/>
      </g>
     </g>
     <g id="text_6">
      <!-- $\mathdefault{10^{-5}}$ -->
      <g transform="translate(27.1 163.083859)scale(0.1 -0.1)">
       <defs>
        <path id="DejaVuSans-35" d="M 691 4666 
L 3169 4666 
L 3169 4134 
L 1269 4134 
L 1269 2991 
Q 1406 3038 1543 3061 
Q 1681 3084 1819 3084 
Q 2600 3084 3056 2656 
Q 3513 2228 3513 1497 
Q 3513 744 3044 326 
Q 2575 -91 1722 -91 
Q 1428 -91 1123 -41 
Q 819 9 494 109 
L 494 744 
Q 775 591 1075 516 
Q 1375 441 1709 441 
Q 2250 441 2565 725 
Q 2881 1009 2881 1497 
Q 2881 1984 2565 2268 
Q 2250 2553 1709 2553 
Q 1456 2553 1204 2497 
Q 953 2441 691 2322 
L 691 4666 
z
" transform="scale(0.015625)"/>
       </defs>
       <use xlink:href="#DejaVuSans-31" transform="translate(0 0.684375)"/>
       <use xlink:href="#DejaVuSans-30" transform="translate(63.623047 0.684375)"/>
       <use xlink:href="#DejaVuSans-2212" transform="translate(128.203125 38.965625)scale(0.7)"/>
       <use xlink:href="#DejaVuSans-35" transform="translate(186.855469 38.965625)scale(0.7)"/>
      </g>
     </g>
    </g>
    <g id="ytick_4">
     <g id="line2d_25">
      <path d="M 57.6 108.697103 
L 414.72 108.697103 
" clip-path="url(#paf248c1ce4)" style="fill: none; stroke: #b0b0b0; stroke-width: 0.8; stroke-linecap: square"/>
     </g>
     <g id="line2d_26">
      <g>
       <use xlink:href="#mbe7e45a7b2" x="57.6" y="108.697103" style="stroke: #000000; stroke-width: 0.8"/>
      </g>
     </g>
     <g id="text_7">
      <!-- $\mathdefault{10^{-3}}$ -->
      <g transform="translate(27.1 112.496322)scale(0.1 -0.1)">
       <defs>
        <path id="DejaVuSans-33" d="M 2597 2516 
Q 3050 2419 3304 2112 
Q 3559 1806 3559 1356 
Q 3559 666 3084 287 
Q 2609 -91 1734 -91 
Q 1441 -91 1130 -33 
Q 819 25 488 141 
L 488 750 
Q 750 597 1062 519 
Q 1375 441 1716 441 
Q 2309 441 2620 675 
Q 2931 909 2931 1356 
Q 2931 1769 2642 2001 
Q 2353 2234 1838 2234 
L 1294 2234 
L 1294 2753 
L 1863 2753 
Q 2328 2753 2575 2939 
Q 2822 3125 2822 3475 
Q 2822 3834 2567 4026 
Q 2313 4219 1838 4219 
Q 1578 4219 1281 4162 
Q 984 4106 628 3988 
L 628 4550 
Q 988 4650 1302 4700 
Q 1616 4750 1894 4750 
Q 2613 4750 3031 4423 
Q 3450 4097 3450 3541 
Q 3450 3153 3228 2886 
Q 3006 2619 2597 2516 
z
" transform="scale(0.015625)"/>
       </defs>
       <use xlink:href="#DejaVuSans-31" transform="translate(0 0.765625)"/>
       <use xlink:href="#DejaVuSans-30" transform="translate(63.623047 0.765625)"/>
       <use xlink:href="#DejaVuSans-2212" transform="translate(128.203125 39.046875)scale(0.7)"/>
       <use xlink:href="#DejaVuSans-33" transform="translate(186.855469 39.046875)scale(0.7)"/>
      </g>
     </g>
    </g>
    <g id="ytick_5">
     <g id="line2d_27">
      <path d="M 57.6 58.109566 
L 414.72 58.109566 
" clip-path="url(#paf248c1ce4)" style="fill: none; stroke: #b0b0b0; stroke-width: 0.8; stroke-linecap: square"/>
     </g>
     <g id="line2d_28">
      <g>
       <use xlink:href="#mbe7e45a7b2" x="57.6" y="58.109566" style="stroke: #000000; stroke-width: 0.8"/>
      </g>
     </g>
     <g id="text_8">
      <!-- $\mathdefault{10^{-1}}$ -->
      <g transform="translate(27.1 61.908784)scale(0.1 -0.1)">
       <use xlink:href="#DejaVuSans-31" transform="translate(0 0.684375)"/>
       <use xlink:href="#DejaVuSans-30" transform="translate(63.623047 0.684375)"/>
       <use xlink:href="#DejaVuSans-2212" transform="translate(128.203125 38.965625)scale(0.7)"/>
       <use xlink:href="#DejaVuSans-31" transform="translate(186.855469 38.965625)scale(0.7)"/>
      </g>
     </g>
    </g>
    <g id="text_9">
     <!-- $\delta$ -->
     <g transform="translate(21.020313 177.628)rotate(-90)scale(0.1 -0.1)">
      <defs>
       <path id="DejaVuSans-Oblique-3b4" d="M 3472 4053 
Q 3197 4272 2450 4272 
Q 1659 4272 1588 3906 
Q 1531 3619 2328 3469 
Q 2953 3353 3253 3003 
Q 3616 2581 3447 1716 
Q 3284 888 2763 400 
Q 2238 -91 1488 -91 
Q 741 -91 406 400 
Q 72 888 241 1747 
Q 363 2384 891 2900 
Q 1097 3100 1353 3213 
Q 913 3459 1000 3900 
Q 1166 4750 2544 4750 
Q 3234 4750 3566 4531 
L 3472 4053 
z
M 1753 3056 
Q 1525 2966 1306 2738 
Q 969 2384 847 1747 
Q 722 1113 919 756 
Q 1119 397 1584 397 
Q 2044 397 2381 759 
Q 2722 1122 2838 1716 
Q 2956 2338 2731 2638 
Q 2491 2959 2103 2994 
Q 1906 3013 1753 3056 
z
" transform="scale(0.015625)"/>
      </defs>
      <use xlink:href="#DejaVuSans-Oblique-3b4" transform="translate(0 0.78125)"/>
     </g>
    </g>
   </g>
   <g id="line2d_29">
    <path d="M 73.832727 260.12886 
L 328.576722 287.873853 
L 328.576722 287.873853 
" clip-path="url(#paf248c1ce4)" style="fill: none; stroke-dasharray: 5.55,2.4; stroke-dashoffset: 0; stroke: #1f77b4; stroke-width: 1.5"/>
   </g>
   <g id="line2d_30">
    <path d="M 73.832727 53.568 
L 328.576722 136.599967 
L 328.576722 136.599967 
" clip-path="url(#paf248c1ce4)" style="fill: none; stroke-dasharray: 5.55,2.4; stroke-dashoffset: 0; stroke: #d62728; stroke-width: 1.5"/>
   </g>
   <g id="patch_3">
    <path d="M 57.6 307.584 
L 57.6 41.472 
" style="fill: none; stroke: #000000; stroke-width: 0.8; stroke-linejoin: miter; stroke-linecap: square"/>
   </g>
   <g id="patch_4">
    <path d="M 414.72 307.584 
L 414.72 41.472 
" style="fill: none; stroke: #000000; stroke-width: 0.8; stroke-linejoin: miter; stroke-linecap: square"/>
   </g>
   <g id="patch_5">
    <path d="M 57.6 307.584 
L 414.72 307.584 
" style="fill: none; stroke: #000000; stroke-width: 0.8; stroke-linejoin: miter; stroke-linecap: square"/>
   </g>
   <g id="patch_6">
    <path d="M 57.6 41.472 
L 414.72 41.472 
" style="fill: none; stroke: #000000; stroke-width: 0.8; stroke-linejoin: miter; stroke-linecap: square"/>
   </g>
   <g id="legend_1">
    <g id="patch_7">
     <path d="M 181.42 82.072 
L 407.72 82.072 
Q 409.72 82.072 409.72 80.072 
L 409.72 48.472 
Q 409.72 46.472 407.72 46.472 
L 181.42 46.472 
Q 179.42 46.472 179.42 48.472 
L 179.42 80.072 
Q 179.42 82.072 181.42 82.072 
z
" style="fill: #ffffff; opacity: 0.8; stroke: #cccccc; stroke-linejoin: miter"/>
    </g>
    <g id="line2d_31">
     <path d="M 183.42 56.172 
L 193.42 56.172 
L 203.42 56.172 
" style="fill: none; stroke-dasharray: 5.55,2.4; stroke-dashoffset: 0; stroke: #1f77b4; stroke-width: 1.5"/>
    </g>
    <g id="text_10">
     <!-- $\delta_0$ Glauber Local Proposal $N^{-b}$ b= 1.0 -->
     <g transform="translate(211.42 59.672)scale(0.1 -0.1)">
      <defs>
       <path id="DejaVuSans-20" transform="scale(0.015625)"/>
       <path id="DejaVuSans-47" d="M 3809 666 
L 3809 1919 
L 2778 1919 
L 2778 2438 
L 4434 2438 
L 4434 434 
Q 4069 175 3628 42 
Q 3188 -91 2688 -91 
Q 1594 -91 976 548 
Q 359 1188 359 2328 
Q 359 3472 976 4111 
Q 1594 4750 2688 4750 
Q 3144 4750 3555 4637 
Q 3966 4525 4313 4306 
L 4313 3634 
Q 3963 3931 3569 4081 
Q 3175 4231 2741 4231 
Q 1884 4231 1454 3753 
Q 1025 3275 1025 2328 
Q 1025 1384 1454 906 
Q 1884 428 2741 428 
Q 3075 428 3337 486 
Q 3600 544 3809 666 
z
" transform="scale(0.015625)"/>
       <path id="DejaVuSans-6c" d="M 603 4863 
L 1178 4863 
L 1178 0 
L 603 0 
L 603 4863 
z
" transform="scale(0.015625)"/>
       <path id="DejaVuSans-61" d="M 2194 1759 
Q 1497 1759 1228 1600 
Q 959 1441 959 1056 
Q 959 750 1161 570 
Q 1363 391 1709 391 
Q 2188 391 2477 730 
Q 2766 1069 2766 1631 
L 2766 1759 
L 2194 1759 
z
M 3341 1997 
L 3341 0 
L 2766 0 
L 2766 531 
Q 2569 213 2275 61 
Q 1981 -91 1556 -91 
Q 1019 -91 701 211 
Q 384 513 384 1019 
Q 384 1609 779 1909 
Q 1175 2209 1959 2209 
L 2766 2209 
L 2766 2266 
Q 2766 2663 2505 2880 
Q 2244 3097 1772 3097 
Q 1472 3097 1187 3025 
Q 903 2953 641 2809 
L 641 3341 
Q 956 3463 1253 3523 
Q 1550 3584 1831 3584 
Q 2591 3584 2966 3190 
Q 3341 2797 3341 1997 
z
" transform="scale(0.015625)"/>
       <path id="DejaVuSans-75" d="M 544 1381 
L 544 3500 
L 1119 3500 
L 1119 1403 
Q 1119 906 1312 657 
Q 1506 409 1894 409 
Q 2359 409 2629 706 
Q 2900 1003 2900 1516 
L 2900 3500 
L 3475 3500 
L 3475 0 
L 2900 0 
L 2900 538 
Q 2691 219 2414 64 
Q 2138 -91 1772 -91 
Q 1169 -91 856 284 
Q 544 659 544 1381 
z
M 1991 3584 
L 1991 3584 
z
" transform="scale(0.015625)"/>
       <path id="DejaVuSans-62" d="M 3116 1747 
Q 3116 2381 2855 2742 
Q 2594 3103 2138 3103 
Q 1681 3103 1420 2742 
Q 1159 2381 1159 1747 
Q 1159 1113 1420 752 
Q 1681 391 2138 391 
Q 2594 391 2855 752 
Q 3116 1113 3116 1747 
z
M 1159 2969 
Q 1341 3281 1617 3432 
Q 1894 3584 2278 3584 
Q 2916 3584 3314 3078 
Q 3713 2572 3713 1747 
Q 3713 922 3314 415 
Q 2916 -91 2278 -91 
Q 1894 -91 1617 61 
Q 1341 213 1159 525 
L 1159 0 
L 581 0 
L 581 4863 
L 1159 4863 
L 1159 2969 
z
" transform="scale(0.015625)"/>
       <path id="DejaVuSans-65" d="M 3597 1894 
L 3597 1613 
L 953 1613 
Q 991 1019 1311 708 
Q 1631 397 2203 397 
Q 2534 397 2845 478 
Q 3156 559 3463 722 
L 3463 178 
Q 3153 47 2828 -22 
Q 2503 -91 2169 -91 
Q 1331 -91 842 396 
Q 353 884 353 1716 
Q 353 2575 817 3079 
Q 1281 3584 2069 3584 
Q 2775 3584 3186 3129 
Q 3597 2675 3597 1894 
z
M 3022 2063 
Q 3016 2534 2758 2815 
Q 2500 3097 2075 3097 
Q 1594 3097 1305 2825 
Q 1016 2553 972 2059 
L 3022 2063 
z
" transform="scale(0.015625)"/>
       <path id="DejaVuSans-72" d="M 2631 2963 
Q 2534 3019 2420 3045 
Q 2306 3072 2169 3072 
Q 1681 3072 1420 2755 
Q 1159 2438 1159 1844 
L 1159 0 
L 581 0 
L 581 3500 
L 1159 3500 
L 1159 2956 
Q 1341 3275 1631 3429 
Q 1922 3584 2338 3584 
Q 2397 3584 2469 3576 
Q 2541 3569 2628 3553 
L 2631 2963 
z
" transform="scale(0.015625)"/>
       <path id="DejaVuSans-4c" d="M 628 4666 
L 1259 4666 
L 1259 531 
L 3531 531 
L 3531 0 
L 628 0 
L 628 4666 
z
" transform="scale(0.015625)"/>
       <path id="DejaVuSans-6f" d="M 1959 3097 
Q 1497 3097 1228 2736 
Q 959 2375 959 1747 
Q 959 1119 1226 758 
Q 1494 397 1959 397 
Q 2419 397 2687 759 
Q 2956 1122 2956 1747 
Q 2956 2369 2687 2733 
Q 2419 3097 1959 3097 
z
M 1959 3584 
Q 2709 3584 3137 3096 
Q 3566 2609 3566 1747 
Q 3566 888 3137 398 
Q 2709 -91 1959 -91 
Q 1206 -91 779 398 
Q 353 888 353 1747 
Q 353 2609 779 3096 
Q 1206 3584 1959 3584 
z
" transform="scale(0.015625)"/>
       <path id="DejaVuSans-63" d="M 3122 3366 
L 3122 2828 
Q 2878 2963 2633 3030 
Q 2388 3097 2138 3097 
Q 1578 3097 1268 2742 
Q 959 2388 959 1747 
Q 959 1106 1268 751 
Q 1578 397 2138 397 
Q 2388 397 2633 464 
Q 2878 531 3122 666 
L 3122 134 
Q 2881 22 2623 -34 
Q 2366 -91 2075 -91 
Q 1284 -91 818 406 
Q 353 903 353 1747 
Q 353 2603 823 3093 
Q 1294 3584 2113 3584 
Q 2378 3584 2631 3529 
Q 2884 3475 3122 3366 
z
" transform="scale(0.015625)"/>
       <path id="DejaVuSans-50" d="M 1259 4147 
L 1259 2394 
L 2053 2394 
Q 2494 2394 2734 2622 
Q 2975 2850 2975 3272 
Q 2975 3691 2734 3919 
Q 2494 4147 2053 4147 
L 1259 4147 
z
M 628 4666 
L 2053 4666 
Q 2838 4666 3239 4311 
Q 3641 3956 3641 3272 
Q 3641 2581 3239 2228 
Q 2838 1875 2053 1875 
L 1259 1875 
L 1259 0 
L 628 0 
L 628 4666 
z
" transform="scale(0.015625)"/>
       <path id="DejaVuSans-70" d="M 1159 525 
L 1159 -1331 
L 581 -1331 
L 581 3500 
L 1159 3500 
L 1159 2969 
Q 1341 3281 1617 3432 
Q 1894 3584 2278 3584 
Q 2916 3584 3314 3078 
Q 3713 2572 3713 1747 
Q 3713 922 3314 415 
Q 2916 -91 2278 -91 
Q 1894 -91 1617 61 
Q 1341 213 1159 525 
z
M 3116 1747 
Q 3116 2381 2855 2742 
Q 2594 3103 2138 3103 
Q 1681 3103 1420 2742 
Q 1159 2381 1159 1747 
Q 1159 1113 1420 752 
Q 1681 391 2138 391 
Q 2594 391 2855 752 
Q 3116 1113 3116 1747 
z
" transform="scale(0.015625)"/>
       <path id="DejaVuSans-73" d="M 2834 3397 
L 2834 2853 
Q 2591 2978 2328 3040 
Q 2066 3103 1784 3103 
Q 1356 3103 1142 2972 
Q 928 2841 928 2578 
Q 928 2378 1081 2264 
Q 1234 2150 1697 2047 
L 1894 2003 
Q 2506 1872 2764 1633 
Q 3022 1394 3022 966 
Q 3022 478 2636 193 
Q 2250 -91 1575 -91 
Q 1294 -91 989 -36 
Q 684 19 347 128 
L 347 722 
Q 666 556 975 473 
Q 1284 391 1588 391 
Q 1994 391 2212 530 
Q 2431 669 2431 922 
Q 2431 1156 2273 1281 
Q 2116 1406 1581 1522 
L 1381 1569 
Q 847 1681 609 1914 
Q 372 2147 372 2553 
Q 372 3047 722 3315 
Q 1072 3584 1716 3584 
Q 2034 3584 2315 3537 
Q 2597 3491 2834 3397 
z
" transform="scale(0.015625)"/>
       <path id="DejaVuSans-Oblique-62" d="M 3169 2138 
Q 3169 2591 2961 2847 
Q 2753 3103 2388 3103 
Q 2122 3103 1889 2973 
Q 1656 2844 1484 2597 
Q 1303 2338 1198 1995 
Q 1094 1653 1094 1313 
Q 1094 881 1298 636 
Q 1503 391 1863 391 
Q 2134 391 2365 517 
Q 2597 644 2772 891 
Q 2950 1147 3059 1487 
Q 3169 1828 3169 2138 
z
M 1381 2969 
Q 1594 3256 1914 3420 
Q 2234 3584 2584 3584 
Q 3122 3584 3439 3221 
Q 3756 2859 3756 2241 
Q 3756 1734 3570 1259 
Q 3384 784 3041 416 
Q 2816 172 2522 40 
Q 2228 -91 1906 -91 
Q 1566 -91 1316 65 
Q 1066 222 909 531 
L 806 0 
L 231 0 
L 1178 4863 
L 1753 4863 
L 1381 2969 
z
" transform="scale(0.015625)"/>
       <path id="DejaVuSans-3d" d="M 678 2906 
L 4684 2906 
L 4684 2381 
L 678 2381 
L 678 2906 
z
M 678 1631 
L 4684 1631 
L 4684 1100 
L 678 1100 
L 678 1631 
z
" transform="scale(0.015625)"/>
       <path id="DejaVuSans-2e" d="M 684 794 
L 1344 794 
L 1344 0 
L 684 0 
L 684 794 
z
" transform="scale(0.015625)"/>
      </defs>
      <use xlink:href="#DejaVuSans-Oblique-3b4" transform="translate(0 0.529687)"/>
      <use xlink:href="#DejaVuSans-30" transform="translate(61.181641 -15.876563)scale(0.7)"/>
      <use xlink:href="#DejaVuSans-20" transform="translate(108.452148 0.529687)"/>
      <use xlink:href="#DejaVuSans-47" transform="translate(140.239258 0.529687)"/>
      <use xlink:href="#DejaVuSans-6c" transform="translate(217.729492 0.529687)"/>
      <use xlink:href="#DejaVuSans-61" transform="translate(245.512695 0.529687)"/>
      <use xlink:href="#DejaVuSans-75" transform="translate(306.791992 0.529687)"/>
      <use xlink:href="#DejaVuSans-62" transform="translate(370.170898 0.529687)"/>
      <use xlink:href="#DejaVuSans-65" transform="translate(433.647461 0.529687)"/>
      <use xlink:href="#DejaVuSans-72" transform="translate(495.170898 0.529687)"/>
      <use xlink:href="#DejaVuSans-20" transform="translate(536.28418 0.529687)"/>
      <use xlink:href="#DejaVuSans-4c" transform="translate(568.071289 0.529687)"/>
      <use xlink:href="#DejaVuSans-6f" transform="translate(623.78418 0.529687)"/>
      <use xlink:href="#DejaVuSans-63" transform="translate(684.96582 0.529687)"/>
      <use xlink:href="#DejaVuSans-61" transform="translate(739.946289 0.529687)"/>
      <use xlink:href="#DejaVuSans-6c" transform="translate(801.225586 0.529687)"/>
      <use xlink:href="#DejaVuSans-20" transform="translate(829.008789 0.529687)"/>
      <use xlink:href="#DejaVuSans-50" transform="translate(860.795898 0.529687)"/>
      <use xlink:href="#DejaVuSans-72" transform="translate(921.098633 0.529687)"/>
      <use xlink:href="#DejaVuSans-6f" transform="translate(962.211914 0.529687)"/>
      <use xlink:href="#DejaVuSans-70" transform="translate(1023.393555 0.529687)"/>
      <use xlink:href="#DejaVuSans-6f" transform="translate(1086.870117 0.529687)"/>
      <use xlink:href="#DejaVuSans-73" transform="translate(1148.051758 0.529687)"/>
      <use xlink:href="#DejaVuSans-61" transform="translate(1200.151367 0.529687)"/>
      <use xlink:href="#DejaVuSans-6c" transform="translate(1261.430664 0.529687)"/>
      <use xlink:href="#DejaVuSans-20" transform="translate(1289.213867 0.529687)"/>
      <use xlink:href="#DejaVuSans-Oblique-4e" transform="translate(1321.000977 0.529687)"/>
      <use xlink:href="#DejaVuSans-2212" transform="translate(1402.822435 38.810937)scale(0.7)"/>
      <use xlink:href="#DejaVuSans-Oblique-62" transform="translate(1461.474779 38.810937)scale(0.7)"/>
      <use xlink:href="#DejaVuSans-20" transform="translate(1508.642747 0.529687)"/>
      <use xlink:href="#DejaVuSans-62" transform="translate(1540.429857 0.529687)"/>
      <use xlink:href="#DejaVuSans-3d" transform="translate(1603.906419 0.529687)"/>
      <use xlink:href="#DejaVuSans-20" transform="translate(1687.695482 0.529687)"/>
      <use xlink:href="#DejaVuSans-31" transform="translate(1719.482591 0.529687)"/>
      <use xlink:href="#DejaVuSans-2e" transform="translate(1783.105638 0.529687)"/>
      <use xlink:href="#DejaVuSans-30" transform="translate(1814.892747 0.529687)"/>
     </g>
    </g>
    <g id="line2d_32">
     <path d="M 183.42 72.472 
L 193.42 72.472 
L 203.42 72.472 
" style="fill: none; stroke-dasharray: 5.55,2.4; stroke-dashoffset: 0; stroke: #d62728; stroke-width: 1.5"/>
    </g>
    <g id="text_11">
     <!-- $\delta_1$ Glauber Local Proposal $N^{-b}$ b= 2.99 -->
     <g transform="translate(211.42 75.972)scale(0.1 -0.1)">
      <use xlink:href="#DejaVuSans-Oblique-3b4" transform="translate(0 0.529687)"/>
      <use xlink:href="#DejaVuSans-31" transform="translate(61.181641 -15.876563)scale(0.7)"/>
      <use xlink:href="#DejaVuSans-20" transform="translate(108.452148 0.529687)"/>
      <use xlink:href="#DejaVuSans-47" transform="translate(140.239258 0.529687)"/>
      <use xlink:href="#DejaVuSans-6c" transform="translate(217.729492 0.529687)"/>
      <use xlink:href="#DejaVuSans-61" transform="translate(245.512695 0.529687)"/>
      <use xlink:href="#DejaVuSans-75" transform="translate(306.791992 0.529687)"/>
      <use xlink:href="#DejaVuSans-62" transform="translate(370.170898 0.529687)"/>
      <use xlink:href="#DejaVuSans-65" transform="translate(433.647461 0.529687)"/>
      <use xlink:href="#DejaVuSans-72" transform="translate(495.170898 0.529687)"/>
      <use xlink:href="#DejaVuSans-20" transform="translate(536.28418 0.529687)"/>
      <use xlink:href="#DejaVuSans-4c" transform="translate(568.071289 0.529687)"/>
      <use xlink:href="#DejaVuSans-6f" transform="translate(623.78418 0.529687)"/>
      <use xlink:href="#DejaVuSans-63" transform="translate(684.96582 0.529687)"/>
      <use xlink:href="#DejaVuSans-61" transform="translate(739.946289 0.529687)"/>
      <use xlink:href="#DejaVuSans-6c" transform="translate(801.225586 0.529687)"/>
      <use xlink:href="#DejaVuSans-20" transform="translate(829.008789 0.529687)"/>
      <use xlink:href="#DejaVuSans-50" transform="translate(860.795898 0.529687)"/>
      <use xlink:href="#DejaVuSans-72" transform="translate(921.098633 0.529687)"/>
      <use xlink:href="#DejaVuSans-6f" transform="translate(962.211914 0.529687)"/>
      <use xlink:href="#DejaVuSans-70" transform="translate(1023.393555 0.529687)"/>
      <use xlink:href="#DejaVuSans-6f" transform="translate(1086.870117 0.529687)"/>
      <use xlink:href="#DejaVuSans-73" transform="translate(1148.051758 0.529687)"/>
      <use xlink:href="#DejaVuSans-61" transform="translate(1200.151367 0.529687)"/>
      <use xlink:href="#DejaVuSans-6c" transform="translate(1261.430664 0.529687)"/>
      <use xlink:href="#DejaVuSans-20" transform="translate(1289.213867 0.529687)"/>
      <use xlink:href="#DejaVuSans-Oblique-4e" transform="translate(1321.000977 0.529687)"/>
      <use xlink:href="#DejaVuSans-2212" transform="translate(1402.822435 38.810937)scale(0.7)"/>
      <use xlink:href="#DejaVuSans-Oblique-62" transform="translate(1461.474779 38.810937)scale(0.7)"/>
      <use xlink:href="#DejaVuSans-20" transform="translate(1508.642747 0.529687)"/>
      <use xlink:href="#DejaVuSans-62" transform="translate(1540.429857 0.529687)"/>
      <use xlink:href="#DejaVuSans-3d" transform="translate(1603.906419 0.529687)"/>
      <use xlink:href="#DejaVuSans-20" transform="translate(1687.695482 0.529687)"/>
      <use xlink:href="#DejaVuSans-32" transform="translate(1719.482591 0.529687)"/>
      <use xlink:href="#DejaVuSans-2e" transform="translate(1783.105638 0.529687)"/>
      <use xlink:href="#DejaVuSans-39" transform="translate(1814.892747 0.529687)"/>
      <use xlink:href="#DejaVuSans-39" transform="translate(1878.515794 0.529687)"/>
     </g>
    </g>
   </g>
  </g>
 </g>
 <defs>
  <clipPath id="paf248c1ce4">
   <rect x="57.6" y="41.472" width="357.12" height="266.112"/>
  </clipPath>
 </defs>
</svg>
