<?xml version="1.0" encoding="utf-8" standalone="no"?>
<!DOCTYPE svg PUBLIC "-//W3C//DTD SVG 1.1//EN"
  "http://www.w3.org/Graphics/SVG/1.1/DTD/svg11.dtd">
<svg xmlns:xlink="http://www.w3.org/1999/xlink" width="460.8pt" height="345.6pt" viewBox="0 0 460.8 345.6" xmlns="http://www.w3.org/2000/svg" version="1.1">
 <metadata>
  <rdf:RDF xmlns:dc="http://purl.org/dc/elements/1.1/" xmlns:cc="http://creativecommons.org/ns#" xmlns:rdf="http://www.w3.org/1999/02/22-rdf-syntax-ns#">
   <cc:Work>
    <dc:type rdf:resource="http://purl.org/dc/dcmitype/StillImage"/>
    <dc:date>2023-05-28T13:33:12.517973</dc:date>
    <dc:format>image/svg+xml</dc:format>
    <dc:creator>
     <cc:Agent>
      <dc:title>Matplotlib v3.5.2, https://matplotlib.org/</dc:title>
     </cc:Agent>
    </dc:creator>
   </cc:Work>
  </rdf:RDF>
 </metadata>
 <defs>
  <style type="text/css">*{stroke-linejoin: round; stroke-linecap: butt}</style>
 </defs>
 <g id="figure_1">
  <g id="patch_1">
   <path d="M 0 345.6 
L 460.8 345.6 
L 460.8 0 
L 0 0 
z
" style="fill: #ffffff"/>
  </g>
  <g id="axes_1">
   <g id="patch_2">
    <path d="M 57.6 307.584 
L 414.72 307.584 
L 414.72 41.472 
L 57.6 41.472 
z
" style="fill: #ffffff"/>
   </g>
   <g id="PolyCollection_1">
    <defs>
     <path id="m3792096234" d="M 73.832727 -163.09951 
L 73.832727 -118.942004 
L 80.45833 -118.942004 
L 87.083933 -118.942004 
L 93.709536 -118.942004 
L 100.335139 -118.942004 
L 106.960742 -118.942004 
L 113.586345 -118.942004 
L 120.211948 -118.942004 
L 126.837551 -118.942004 
L 133.463154 -118.942004 
L 140.088757 -118.942098 
L 146.71436 -118.956224 
L 153.339963 -119.322686 
L 159.965566 -122.151701 
L 166.591169 -131.16893 
L 173.216772 -146.218735 
L 179.842375 -162.694603 
L 186.467978 -176.811372 
L 193.093581 -187.374072 
L 199.719184 -194.76986 
L 206.344787 -199.804966 
L 212.97039 -203.18846 
L 219.595993 -205.45054 
L 226.221596 -207.086235 
L 232.847199 -209.052098 
L 239.472801 -212.855578 
L 246.098404 -219.351544 
L 252.724007 -228.05136 
L 259.34961 -237.757845 
L 265.975213 -247.259462 
L 272.600816 -255.663178 
L 279.226419 -262.515105 
L 285.852022 -267.757077 
L 292.477625 -271.580469 
L 299.103228 -274.275009 
L 305.728831 -276.129001 
L 312.354434 -277.383925 
L 318.980037 -278.224035 
L 325.60564 -278.782325 
L 332.231243 -279.151528 
L 338.856846 -279.3949 
L 345.482449 -279.554988 
L 352.108052 -279.660145 
L 358.733655 -279.729156 
L 365.359258 -279.774419 
L 371.984861 -279.804095 
L 378.610464 -279.823546 
L 385.236067 -279.836292 
L 391.86167 -279.844645 
L 398.487273 -279.850118 
L 398.487273 -279.854114 
L 398.487273 -279.854114 
L 391.86167 -279.850744 
L 385.236067 -279.845601 
L 378.610464 -279.837752 
L 371.984861 -279.825773 
L 365.359258 -279.807493 
L 358.733655 -279.779602 
L 352.108052 -279.737057 
L 345.482449 -279.672182 
L 338.856846 -279.573309 
L 332.231243 -279.422745 
L 325.60564 -279.193756 
L 318.980037 -278.846169 
L 312.354434 -278.32014 
L 305.728831 -277.527754 
L 299.103228 -276.342741 
L 292.477625 -274.590405 
L 285.852022 -272.044038 
L 279.226419 -268.441573 
L 272.600816 -263.54444 
L 265.975213 -257.257412 
L 259.34961 -249.793814 
L 252.724007 -241.807803 
L 246.098404 -234.371161 
L 239.472801 -228.649124 
L 232.847199 -225.165385 
L 226.221596 -223.191462 
L 219.595993 -221.38975 
L 212.97039 -218.895132 
L 206.344787 -215.268497 
L 199.719184 -210.132791 
L 193.093581 -203.194812 
L 186.467978 -194.492154 
L 179.842375 -184.682841 
L 173.216772 -175.201558 
L 166.591169 -168.015085 
L 159.965566 -164.313057 
L 153.339963 -163.240633 
L 146.71436 -163.104768 
L 140.088757 -163.099545 
L 133.463154 -163.09951 
L 126.837551 -163.09951 
L 120.211948 -163.09951 
L 113.586345 -163.09951 
L 106.960742 -163.09951 
L 100.335139 -163.09951 
L 93.709536 -163.09951 
L 87.083933 -163.09951 
L 80.45833 -163.09951 
L 73.832727 -163.09951 
z
" style="stroke: #2ca02c; stroke-opacity: 0.2"/>
    </defs>
    <g clip-path="url(#p48686dbebc)">
     <use xlink:href="#m3792096234" x="0" y="345.6" style="fill: #2ca02c; fill-opacity: 0.2; stroke: #2ca02c; stroke-opacity: 0.2"/>
    </g>
   </g>
   <g id="PolyCollection_2">
    <path d="M 73.832727 1256.561872 
L 73.832727 1340.509213 
L 80.45833 1385.236962 
L 87.083933 1320.170944 
L 93.709536 1328.59719 
L 100.335139 1372.590724 
L 106.960742 1332.690811 
L 113.586345 1350.29023 
L 120.211948 1344.710236 
L 126.837551 1355.545468 
L 133.463154 955.215988 
L 140.088757 686.80764 
L 146.71436 510.959351 
L 153.339963 395.589684 
L 159.965566 318.832021 
L 166.591169 265.704143 
L 173.216772 228.304734 
L 179.842375 202.738906 
L 186.467978 185.750863 
L 193.093581 174.601322 
L 199.719184 167.310709 
L 206.344787 162.546066 
L 212.97039 159.431029 
L 219.595993 157.386967 
L 226.221596 155.919516 
L 232.847199 154.158481 
L 239.472801 150.96772 
L 246.098404 146.222234 
L 252.724007 140.857412 
L 259.34961 135.671902 
L 265.975213 130.917656 
L 272.600816 126.785913 
L 279.226419 129.620985 
L 285.852022 143.11563 
L 292.477625 156.934938 
L 299.103228 170.924525 
L 305.728831 185.193387 
L 312.354434 199.646598 
L 318.980037 214.221229 
L 325.60564 228.8757 
L 332.231243 243.582607 
L 338.856846 258.323923 
L 345.482449 273.087805 
L 352.108052 287.866483 
L 358.733655 302.654859 
L 365.359258 317.449589 
L 371.984861 332.248484 
L 378.610464 347.050107 
L 385.236067 361.853518 
L 391.86167 376.6581 
L 398.487273 391.463449 
L 398.487273 374.431051 
L 398.487273 374.431051 
L 391.86167 359.626323 
L 385.236067 344.82269 
L 378.610464 330.020726 
L 371.984861 315.221312 
L 365.359258 300.425789 
L 358.733655 285.636203 
L 352.108052 270.855678 
L 345.482449 256.088975 
L 338.856846 241.343354 
L 332.231243 226.629874 
L 325.60564 211.965366 
L 318.980037 197.375411 
L 312.354434 182.898809 
L 305.728831 168.594269 
L 299.103228 154.550353 
L 292.477625 140.900277 
L 285.852022 128.209704 
L 279.226419 122.175739 
L 272.600816 124.454926 
L 265.975213 128.051621 
L 259.34961 132.480158 
L 252.724007 137.306365 
L 246.098404 142.066288 
L 239.472801 146.233303 
L 232.847199 149.073247 
L 226.221596 150.672359 
L 219.595993 152.035669 
L 212.97039 153.941244 
L 206.344787 156.840989 
L 199.719184 161.265321 
L 193.093581 168.009267 
L 186.467978 178.263368 
L 179.842375 193.765893 
L 173.216772 216.949544 
L 166.591169 251.16824 
L 159.965566 301.650929 
L 153.339963 377.426832 
L 146.71436 492.66457 
L 140.088757 668.507748 
L 133.463154 936.915347 
L 126.837551 1255.512315 
L 120.211948 1249.365396 
L 113.586345 1258.070122 
L 106.960742 1255.31265 
L 100.335139 1256.812981 
L 93.709536 1250.85224 
L 87.083933 1257.85171 
L 80.45833 1247.149689 
L 73.832727 1256.561872 
z
" clip-path="url(#p48686dbebc)" style="fill: #1f77b4; fill-opacity: 0.2; stroke: #1f77b4; stroke-opacity: 0.2"/>
   </g>
   <g id="PolyCollection_3">
    <defs>
     <path id="m2dc3c0f60d" d="M 73.832727 -147.625882 
L 73.832727 -123.182933 
L 80.45833 -123.182933 
L 87.083933 -123.182933 
L 93.709536 -123.182933 
L 100.335139 -123.182933 
L 106.960742 -123.182933 
L 113.586345 -123.182933 
L 120.211948 -123.182933 
L 126.837551 -123.182933 
L 133.463154 -123.182933 
L 140.088757 -123.183021 
L 146.71436 -123.196311 
L 153.339963 -123.540694 
L 159.965566 -126.158625 
L 166.591169 -134.068874 
L 173.216772 -146.180514 
L 179.842375 -158.357483 
L 186.467978 -168.069763 
L 193.093581 -175.018209 
L 199.719184 -179.780007 
L 206.344787 -182.977642 
L 212.97039 -185.102756 
L 219.595993 -186.509741 
L 226.221596 -187.493264 
L 232.847199 -188.508599 
L 239.472801 -190.197515 
L 246.098404 -192.826672 
L 252.724007 -196.000839 
L 259.34961 -199.088489 
L 265.975213 -201.592036 
L 272.600816 -203.551805 
L 279.226419 -204.931559 
L 285.852022 -205.830086 
L 292.477625 -206.400685 
L 299.103228 -206.766017 
L 305.728831 -207.004882 
L 312.354434 -207.159728 
L 318.980037 -207.259964 
L 325.60564 -207.325056 
L 332.231243 -207.367451 
L 338.856846 -207.395096 
L 345.482449 -207.413142 
L 352.108052 -207.424936 
L 358.733655 -207.432649 
L 365.359258 -207.437697 
L 371.984861 -207.441001 
L 378.610464 -207.443165 
L 385.236067 -207.444582 
L 391.86167 -207.44551 
L 398.487273 -207.446118 
L 398.487273 -210.325462 
L 398.487273 -210.325462 
L 391.86167 -210.324833 
L 385.236067 -210.323873 
L 378.610464 -210.322409 
L 371.984861 -210.320175 
L 365.359258 -210.31677 
L 358.733655 -210.311581 
L 352.108052 -210.303681 
L 345.482449 -210.29167 
L 338.856846 -210.273441 
L 332.231243 -210.245852 
L 325.60564 -210.204005 
L 318.980037 -210.140249 
L 312.354434 -210.045169 
L 305.728831 -209.894913 
L 299.103228 -209.664645 
L 292.477625 -209.302277 
L 285.852022 -208.754591 
L 279.226419 -207.981008 
L 272.600816 -206.993388 
L 265.975213 -205.598243 
L 259.34961 -203.707586 
L 252.724007 -201.759022 
L 246.098404 -199.8531 
L 239.472801 -198.291151 
L 232.847199 -197.219576 
L 226.221596 -196.435081 
L 219.595993 -195.545247 
L 212.97039 -194.248059 
L 206.344787 -192.305761 
L 199.719184 -189.427736 
L 193.093581 -185.24874 
L 186.467978 -179.399644 
L 179.842375 -171.754793 
L 173.216772 -162.809758 
L 166.591169 -154.403546 
L 159.965566 -149.377314 
L 153.339963 -147.830496 
L 146.71436 -147.633496 
L 140.088757 -147.625932 
L 133.463154 -147.625882 
L 126.837551 -147.625882 
L 120.211948 -147.625882 
L 113.586345 -147.625882 
L 106.960742 -147.625882 
L 100.335139 -147.625882 
L 93.709536 -147.625882 
L 87.083933 -147.625882 
L 80.45833 -147.625882 
L 73.832727 -147.625882 
z
" style="stroke: #000000; stroke-opacity: 0.2"/>
    </defs>
    <g clip-path="url(#p48686dbebc)">
     <use xlink:href="#m2dc3c0f60d" x="0" y="345.6" style="fill-opacity: 0.2; stroke: #000000; stroke-opacity: 0.2"/>
    </g>
   </g>
   <g id="matplotlib.axis_1">
    <g id="xtick_1">
     <g id="line2d_1">
      <path d="M 109.905455 307.584 
L 109.905455 41.472 
" clip-path="url(#p48686dbebc)" style="fill: none; stroke: #b0b0b0; stroke-width: 0.8; stroke-linecap: square"/>
     </g>
     <g id="line2d_2">
      <defs>
       <path id="m948d2c2a8f" d="M 0 0 
L 0 3.5 
" style="stroke: #000000; stroke-width: 0.8"/>
      </defs>
      <g>
       <use xlink:href="#m948d2c2a8f" x="109.905455" y="307.584" style="stroke: #000000; stroke-width: 0.8"/>
      </g>
     </g>
     <g id="text_1">
      <!-- $\mathdefault{10^{-2}}$ -->
      <g transform="translate(98.155455 322.182437)scale(0.1 -0.1)">
       <defs>
        <path id="DejaVuSans-31" d="M 794 531 
L 1825 531 
L 1825 4091 
L 703 3866 
L 703 4441 
L 1819 4666 
L 2450 4666 
L 2450 531 
L 3481 531 
L 3481 0 
L 794 0 
L 794 531 
z
" transform="scale(0.015625)"/>
        <path id="DejaVuSans-30" d="M 2034 4250 
Q 1547 4250 1301 3770 
Q 1056 3291 1056 2328 
Q 1056 1369 1301 889 
Q 1547 409 2034 409 
Q 2525 409 2770 889 
Q 3016 1369 3016 2328 
Q 3016 3291 2770 3770 
Q 2525 4250 2034 4250 
z
M 2034 4750 
Q 2819 4750 3233 4129 
Q 3647 3509 3647 2328 
Q 3647 1150 3233 529 
Q 2819 -91 2034 -91 
Q 1250 -91 836 529 
Q 422 1150 422 2328 
Q 422 3509 836 4129 
Q 1250 4750 2034 4750 
z
" transform="scale(0.015625)"/>
        <path id="DejaVuSans-2212" d="M 678 2272 
L 4684 2272 
L 4684 1741 
L 678 1741 
L 678 2272 
z
" transform="scale(0.015625)"/>
        <path id="DejaVuSans-32" d="M 1228 531 
L 3431 531 
L 3431 0 
L 469 0 
L 469 531 
Q 828 903 1448 1529 
Q 2069 2156 2228 2338 
Q 2531 2678 2651 2914 
Q 2772 3150 2772 3378 
Q 2772 3750 2511 3984 
Q 2250 4219 1831 4219 
Q 1534 4219 1204 4116 
Q 875 4013 500 3803 
L 500 4441 
Q 881 4594 1212 4672 
Q 1544 4750 1819 4750 
Q 2544 4750 2975 4387 
Q 3406 4025 3406 3419 
Q 3406 3131 3298 2873 
Q 3191 2616 2906 2266 
Q 2828 2175 2409 1742 
Q 1991 1309 1228 531 
z
" transform="scale(0.015625)"/>
       </defs>
       <use xlink:href="#DejaVuSans-31" transform="translate(0 0.765625)"/>
       <use xlink:href="#DejaVuSans-30" transform="translate(63.623047 0.765625)"/>
       <use xlink:href="#DejaVuSans-2212" transform="translate(128.203125 39.046875)scale(0.7)"/>
       <use xlink:href="#DejaVuSans-32" transform="translate(186.855469 39.046875)scale(0.7)"/>
      </g>
     </g>
    </g>
    <g id="xtick_2">
     <g id="line2d_3">
      <path d="M 182.050909 307.584 
L 182.050909 41.472 
" clip-path="url(#p48686dbebc)" style="fill: none; stroke: #b0b0b0; stroke-width: 0.8; stroke-linecap: square"/>
     </g>
     <g id="line2d_4">
      <g>
       <use xlink:href="#m948d2c2a8f" x="182.050909" y="307.584" style="stroke: #000000; stroke-width: 0.8"/>
      </g>
     </g>
     <g id="text_2">
      <!-- $\mathdefault{10^{0}}$ -->
      <g transform="translate(173.250909 322.182437)scale(0.1 -0.1)">
       <use xlink:href="#DejaVuSans-31" transform="translate(0 0.765625)"/>
       <use xlink:href="#DejaVuSans-30" transform="translate(63.623047 0.765625)"/>
       <use xlink:href="#DejaVuSans-30" transform="translate(128.203125 39.046875)scale(0.7)"/>
      </g>
     </g>
    </g>
    <g id="xtick_3">
     <g id="line2d_5">
      <path d="M 254.196364 307.584 
L 254.196364 41.472 
" clip-path="url(#p48686dbebc)" style="fill: none; stroke: #b0b0b0; stroke-width: 0.8; stroke-linecap: square"/>
     </g>
     <g id="line2d_6">
      <g>
       <use xlink:href="#m948d2c2a8f" x="254.196364" y="307.584" style="stroke: #000000; stroke-width: 0.8"/>
      </g>
     </g>
     <g id="text_3">
      <!-- $\mathdefault{10^{2}}$ -->
      <g transform="translate(245.396364 322.182437)scale(0.1 -0.1)">
       <use xlink:href="#DejaVuSans-31" transform="translate(0 0.765625)"/>
       <use xlink:href="#DejaVuSans-30" transform="translate(63.623047 0.765625)"/>
       <use xlink:href="#DejaVuSans-32" transform="translate(128.203125 39.046875)scale(0.7)"/>
      </g>
     </g>
    </g>
    <g id="xtick_4">
     <g id="line2d_7">
      <path d="M 326.341818 307.584 
L 326.341818 41.472 
" clip-path="url(#p48686dbebc)" style="fill: none; stroke: #b0b0b0; stroke-width: 0.8; stroke-linecap: square"/>
     </g>
     <g id="line2d_8">
      <g>
       <use xlink:href="#m948d2c2a8f" x="326.341818" y="307.584" style="stroke: #000000; stroke-width: 0.8"/>
      </g>
     </g>
     <g id="text_4">
      <!-- $\mathdefault{10^{4}}$ -->
      <g transform="translate(317.541818 322.182437)scale(0.1 -0.1)">
       <defs>
        <path id="DejaVuSans-34" d="M 2419 4116 
L 825 1625 
L 2419 1625 
L 2419 4116 
z
M 2253 4666 
L 3047 4666 
L 3047 1625 
L 3713 1625 
L 3713 1100 
L 3047 1100 
L 3047 0 
L 2419 0 
L 2419 1100 
L 313 1100 
L 313 1709 
L 2253 4666 
z
" transform="scale(0.015625)"/>
       </defs>
       <use xlink:href="#DejaVuSans-31" transform="translate(0 0.684375)"/>
       <use xlink:href="#DejaVuSans-30" transform="translate(63.623047 0.684375)"/>
       <use xlink:href="#DejaVuSans-34" transform="translate(128.203125 38.965625)scale(0.7)"/>
      </g>
     </g>
    </g>
    <g id="xtick_5">
     <g id="line2d_9">
      <path d="M 398.487273 307.584 
L 398.487273 41.472 
" clip-path="url(#p48686dbebc)" style="fill: none; stroke: #b0b0b0; stroke-width: 0.8; stroke-linecap: square"/>
     </g>
     <g id="line2d_10">
      <g>
       <use xlink:href="#m948d2c2a8f" x="398.487273" y="307.584" style="stroke: #000000; stroke-width: 0.8"/>
      </g>
     </g>
     <g id="text_5">
      <!-- $\mathdefault{10^{6}}$ -->
      <g transform="translate(389.687273 322.182437)scale(0.1 -0.1)">
       <defs>
        <path id="DejaVuSans-36" d="M 2113 2584 
Q 1688 2584 1439 2293 
Q 1191 2003 1191 1497 
Q 1191 994 1439 701 
Q 1688 409 2113 409 
Q 2538 409 2786 701 
Q 3034 994 3034 1497 
Q 3034 2003 2786 2293 
Q 2538 2584 2113 2584 
z
M 3366 4563 
L 3366 3988 
Q 3128 4100 2886 4159 
Q 2644 4219 2406 4219 
Q 1781 4219 1451 3797 
Q 1122 3375 1075 2522 
Q 1259 2794 1537 2939 
Q 1816 3084 2150 3084 
Q 2853 3084 3261 2657 
Q 3669 2231 3669 1497 
Q 3669 778 3244 343 
Q 2819 -91 2113 -91 
Q 1303 -91 875 529 
Q 447 1150 447 2328 
Q 447 3434 972 4092 
Q 1497 4750 2381 4750 
Q 2619 4750 2861 4703 
Q 3103 4656 3366 4563 
z
" transform="scale(0.015625)"/>
       </defs>
       <use xlink:href="#DejaVuSans-31" transform="translate(0 0.765625)"/>
       <use xlink:href="#DejaVuSans-30" transform="translate(63.623047 0.765625)"/>
       <use xlink:href="#DejaVuSans-36" transform="translate(128.203125 39.046875)scale(0.7)"/>
      </g>
     </g>
    </g>
    <g id="text_6">
     <!-- $T$ -->
     <g transform="translate(233.06 335.860562)scale(0.1 -0.1)">
      <defs>
       <path id="DejaVuSans-Oblique-54" d="M 378 4666 
L 4325 4666 
L 4225 4134 
L 2559 4134 
L 1759 0 
L 1125 0 
L 1925 4134 
L 275 4134 
L 378 4666 
z
" transform="scale(0.015625)"/>
      </defs>
      <use xlink:href="#DejaVuSans-Oblique-54" transform="translate(0 0.09375)"/>
     </g>
    </g>
   </g>
   <g id="matplotlib.axis_2">
    <g id="ytick_1">
     <g id="line2d_11">
      <path d="M 57.6 307.584 
L 414.72 307.584 
" clip-path="url(#p48686dbebc)" style="fill: none; stroke: #b0b0b0; stroke-width: 0.8; stroke-linecap: square"/>
     </g>
     <g id="line2d_12">
      <defs>
       <path id="m8a06421b66" d="M 0 0 
L -3.5 0 
" style="stroke: #000000; stroke-width: 0.8"/>
      </defs>
      <g>
       <use xlink:href="#m8a06421b66" x="57.6" y="307.584" style="stroke: #000000; stroke-width: 0.8"/>
      </g>
     </g>
     <g id="text_7">
      <!-- $\mathdefault{10^{-3}}$ -->
      <g transform="translate(27.1 311.383219)scale(0.1 -0.1)">
       <defs>
        <path id="DejaVuSans-33" d="M 2597 2516 
Q 3050 2419 3304 2112 
Q 3559 1806 3559 1356 
Q 3559 666 3084 287 
Q 2609 -91 1734 -91 
Q 1441 -91 1130 -33 
Q 819 25 488 141 
L 488 750 
Q 750 597 1062 519 
Q 1375 441 1716 441 
Q 2309 441 2620 675 
Q 2931 909 2931 1356 
Q 2931 1769 2642 2001 
Q 2353 2234 1838 2234 
L 1294 2234 
L 1294 2753 
L 1863 2753 
Q 2328 2753 2575 2939 
Q 2822 3125 2822 3475 
Q 2822 3834 2567 4026 
Q 2313 4219 1838 4219 
Q 1578 4219 1281 4162 
Q 984 4106 628 3988 
L 628 4550 
Q 988 4650 1302 4700 
Q 1616 4750 1894 4750 
Q 2613 4750 3031 4423 
Q 3450 4097 3450 3541 
Q 3450 3153 3228 2886 
Q 3006 2619 2597 2516 
z
" transform="scale(0.015625)"/>
       </defs>
       <use xlink:href="#DejaVuSans-31" transform="translate(0 0.765625)"/>
       <use xlink:href="#DejaVuSans-30" transform="translate(63.623047 0.765625)"/>
       <use xlink:href="#DejaVuSans-2212" transform="translate(128.203125 39.046875)scale(0.7)"/>
       <use xlink:href="#DejaVuSans-33" transform="translate(186.855469 39.046875)scale(0.7)"/>
      </g>
     </g>
    </g>
    <g id="ytick_2">
     <g id="line2d_13">
      <path d="M 57.6 226.969161 
L 414.72 226.969161 
" clip-path="url(#p48686dbebc)" style="fill: none; stroke: #b0b0b0; stroke-width: 0.8; stroke-linecap: square"/>
     </g>
     <g id="line2d_14">
      <g>
       <use xlink:href="#m8a06421b66" x="57.6" y="226.969161" style="stroke: #000000; stroke-width: 0.8"/>
      </g>
     </g>
     <g id="text_8">
      <!-- $\mathdefault{10^{-2}}$ -->
      <g transform="translate(27.1 230.76838)scale(0.1 -0.1)">
       <use xlink:href="#DejaVuSans-31" transform="translate(0 0.765625)"/>
       <use xlink:href="#DejaVuSans-30" transform="translate(63.623047 0.765625)"/>
       <use xlink:href="#DejaVuSans-2212" transform="translate(128.203125 39.046875)scale(0.7)"/>
       <use xlink:href="#DejaVuSans-32" transform="translate(186.855469 39.046875)scale(0.7)"/>
      </g>
     </g>
    </g>
    <g id="ytick_3">
     <g id="line2d_15">
      <path d="M 57.6 146.354323 
L 414.72 146.354323 
" clip-path="url(#p48686dbebc)" style="fill: none; stroke: #b0b0b0; stroke-width: 0.8; stroke-linecap: square"/>
     </g>
     <g id="line2d_16">
      <g>
       <use xlink:href="#m8a06421b66" x="57.6" y="146.354323" style="stroke: #000000; stroke-width: 0.8"/>
      </g>
     </g>
     <g id="text_9">
      <!-- $\mathdefault{10^{-1}}$ -->
      <g transform="translate(27.1 150.153542)scale(0.1 -0.1)">
       <use xlink:href="#DejaVuSans-31" transform="translate(0 0.684375)"/>
       <use xlink:href="#DejaVuSans-30" transform="translate(63.623047 0.684375)"/>
       <use xlink:href="#DejaVuSans-2212" transform="translate(128.203125 38.965625)scale(0.7)"/>
       <use xlink:href="#DejaVuSans-31" transform="translate(186.855469 38.965625)scale(0.7)"/>
      </g>
     </g>
    </g>
    <g id="ytick_4">
     <g id="line2d_17">
      <path d="M 57.6 65.739484 
L 414.72 65.739484 
" clip-path="url(#p48686dbebc)" style="fill: none; stroke: #b0b0b0; stroke-width: 0.8; stroke-linecap: square"/>
     </g>
     <g id="line2d_18">
      <g>
       <use xlink:href="#m8a06421b66" x="57.6" y="65.739484" style="stroke: #000000; stroke-width: 0.8"/>
      </g>
     </g>
     <g id="text_10">
      <!-- $\mathdefault{10^{0}}$ -->
      <g transform="translate(33 69.538703)scale(0.1 -0.1)">
       <use xlink:href="#DejaVuSans-31" transform="translate(0 0.765625)"/>
       <use xlink:href="#DejaVuSans-30" transform="translate(63.623047 0.765625)"/>
       <use xlink:href="#DejaVuSans-30" transform="translate(128.203125 39.046875)scale(0.7)"/>
      </g>
     </g>
    </g>
    <g id="ytick_5">
     <g id="line2d_19">
      <defs>
       <path id="m2aa75c7e40" d="M 0 0 
L -2 0 
" style="stroke: #000000; stroke-width: 0.6"/>
      </defs>
      <g>
       <use xlink:href="#m2aa75c7e40" x="57.6" y="283.316516" style="stroke: #000000; stroke-width: 0.6"/>
      </g>
     </g>
    </g>
    <g id="ytick_6">
     <g id="line2d_20">
      <g>
       <use xlink:href="#m2aa75c7e40" x="57.6" y="269.120947" style="stroke: #000000; stroke-width: 0.6"/>
      </g>
     </g>
    </g>
    <g id="ytick_7">
     <g id="line2d_21">
      <g>
       <use xlink:href="#m2aa75c7e40" x="57.6" y="259.049031" style="stroke: #000000; stroke-width: 0.6"/>
      </g>
     </g>
    </g>
    <g id="ytick_8">
     <g id="line2d_22">
      <g>
       <use xlink:href="#m2aa75c7e40" x="57.6" y="251.236646" style="stroke: #000000; stroke-width: 0.6"/>
      </g>
     </g>
    </g>
    <g id="ytick_9">
     <g id="line2d_23">
      <g>
       <use xlink:href="#m2aa75c7e40" x="57.6" y="244.853463" style="stroke: #000000; stroke-width: 0.6"/>
      </g>
     </g>
    </g>
    <g id="ytick_10">
     <g id="line2d_24">
      <g>
       <use xlink:href="#m2aa75c7e40" x="57.6" y="239.456558" style="stroke: #000000; stroke-width: 0.6"/>
      </g>
     </g>
    </g>
    <g id="ytick_11">
     <g id="line2d_25">
      <g>
       <use xlink:href="#m2aa75c7e40" x="57.6" y="234.781547" style="stroke: #000000; stroke-width: 0.6"/>
      </g>
     </g>
    </g>
    <g id="ytick_12">
     <g id="line2d_26">
      <g>
       <use xlink:href="#m2aa75c7e40" x="57.6" y="230.657894" style="stroke: #000000; stroke-width: 0.6"/>
      </g>
     </g>
    </g>
    <g id="ytick_13">
     <g id="line2d_27">
      <g>
       <use xlink:href="#m2aa75c7e40" x="57.6" y="202.701677" style="stroke: #000000; stroke-width: 0.6"/>
      </g>
     </g>
    </g>
    <g id="ytick_14">
     <g id="line2d_28">
      <g>
       <use xlink:href="#m2aa75c7e40" x="57.6" y="188.506109" style="stroke: #000000; stroke-width: 0.6"/>
      </g>
     </g>
    </g>
    <g id="ytick_15">
     <g id="line2d_29">
      <g>
       <use xlink:href="#m2aa75c7e40" x="57.6" y="178.434193" style="stroke: #000000; stroke-width: 0.6"/>
      </g>
     </g>
    </g>
    <g id="ytick_16">
     <g id="line2d_30">
      <g>
       <use xlink:href="#m2aa75c7e40" x="57.6" y="170.621807" style="stroke: #000000; stroke-width: 0.6"/>
      </g>
     </g>
    </g>
    <g id="ytick_17">
     <g id="line2d_31">
      <g>
       <use xlink:href="#m2aa75c7e40" x="57.6" y="164.238624" style="stroke: #000000; stroke-width: 0.6"/>
      </g>
     </g>
    </g>
    <g id="ytick_18">
     <g id="line2d_32">
      <g>
       <use xlink:href="#m2aa75c7e40" x="57.6" y="158.841719" style="stroke: #000000; stroke-width: 0.6"/>
      </g>
     </g>
    </g>
    <g id="ytick_19">
     <g id="line2d_33">
      <g>
       <use xlink:href="#m2aa75c7e40" x="57.6" y="154.166708" style="stroke: #000000; stroke-width: 0.6"/>
      </g>
     </g>
    </g>
    <g id="ytick_20">
     <g id="line2d_34">
      <g>
       <use xlink:href="#m2aa75c7e40" x="57.6" y="150.043056" style="stroke: #000000; stroke-width: 0.6"/>
      </g>
     </g>
    </g>
    <g id="ytick_21">
     <g id="line2d_35">
      <g>
       <use xlink:href="#m2aa75c7e40" x="57.6" y="122.086839" style="stroke: #000000; stroke-width: 0.6"/>
      </g>
     </g>
    </g>
    <g id="ytick_22">
     <g id="line2d_36">
      <g>
       <use xlink:href="#m2aa75c7e40" x="57.6" y="107.89127" style="stroke: #000000; stroke-width: 0.6"/>
      </g>
     </g>
    </g>
    <g id="ytick_23">
     <g id="line2d_37">
      <g>
       <use xlink:href="#m2aa75c7e40" x="57.6" y="97.819354" style="stroke: #000000; stroke-width: 0.6"/>
      </g>
     </g>
    </g>
    <g id="ytick_24">
     <g id="line2d_38">
      <g>
       <use xlink:href="#m2aa75c7e40" x="57.6" y="90.006969" style="stroke: #000000; stroke-width: 0.6"/>
      </g>
     </g>
    </g>
    <g id="ytick_25">
     <g id="line2d_39">
      <g>
       <use xlink:href="#m2aa75c7e40" x="57.6" y="83.623786" style="stroke: #000000; stroke-width: 0.6"/>
      </g>
     </g>
    </g>
    <g id="ytick_26">
     <g id="line2d_40">
      <g>
       <use xlink:href="#m2aa75c7e40" x="57.6" y="78.226881" style="stroke: #000000; stroke-width: 0.6"/>
      </g>
     </g>
    </g>
    <g id="ytick_27">
     <g id="line2d_41">
      <g>
       <use xlink:href="#m2aa75c7e40" x="57.6" y="73.55187" style="stroke: #000000; stroke-width: 0.6"/>
      </g>
     </g>
    </g>
    <g id="ytick_28">
     <g id="line2d_42">
      <g>
       <use xlink:href="#m2aa75c7e40" x="57.6" y="69.428217" style="stroke: #000000; stroke-width: 0.6"/>
      </g>
     </g>
    </g>
    <g id="ytick_29">
     <g id="line2d_43">
      <g>
       <use xlink:href="#m2aa75c7e40" x="57.6" y="41.472" style="stroke: #000000; stroke-width: 0.6"/>
      </g>
     </g>
    </g>
    <g id="text_11">
     <!-- Average $\delta$ -->
     <g transform="translate(21 200.028)rotate(-90)scale(0.1 -0.1)">
      <defs>
       <path id="DejaVuSans-41" d="M 2188 4044 
L 1331 1722 
L 3047 1722 
L 2188 4044 
z
M 1831 4666 
L 2547 4666 
L 4325 0 
L 3669 0 
L 3244 1197 
L 1141 1197 
L 716 0 
L 50 0 
L 1831 4666 
z
" transform="scale(0.015625)"/>
       <path id="DejaVuSans-76" d="M 191 3500 
L 800 3500 
L 1894 563 
L 2988 3500 
L 3597 3500 
L 2284 0 
L 1503 0 
L 191 3500 
z
" transform="scale(0.015625)"/>
       <path id="DejaVuSans-65" d="M 3597 1894 
L 3597 1613 
L 953 1613 
Q 991 1019 1311 708 
Q 1631 397 2203 397 
Q 2534 397 2845 478 
Q 3156 559 3463 722 
L 3463 178 
Q 3153 47 2828 -22 
Q 2503 -91 2169 -91 
Q 1331 -91 842 396 
Q 353 884 353 1716 
Q 353 2575 817 3079 
Q 1281 3584 2069 3584 
Q 2775 3584 3186 3129 
Q 3597 2675 3597 1894 
z
M 3022 2063 
Q 3016 2534 2758 2815 
Q 2500 3097 2075 3097 
Q 1594 3097 1305 2825 
Q 1016 2553 972 2059 
L 3022 2063 
z
" transform="scale(0.015625)"/>
       <path id="DejaVuSans-72" d="M 2631 2963 
Q 2534 3019 2420 3045 
Q 2306 3072 2169 3072 
Q 1681 3072 1420 2755 
Q 1159 2438 1159 1844 
L 1159 0 
L 581 0 
L 581 3500 
L 1159 3500 
L 1159 2956 
Q 1341 3275 1631 3429 
Q 1922 3584 2338 3584 
Q 2397 3584 2469 3576 
Q 2541 3569 2628 3553 
L 2631 2963 
z
" transform="scale(0.015625)"/>
       <path id="DejaVuSans-61" d="M 2194 1759 
Q 1497 1759 1228 1600 
Q 959 1441 959 1056 
Q 959 750 1161 570 
Q 1363 391 1709 391 
Q 2188 391 2477 730 
Q 2766 1069 2766 1631 
L 2766 1759 
L 2194 1759 
z
M 3341 1997 
L 3341 0 
L 2766 0 
L 2766 531 
Q 2569 213 2275 61 
Q 1981 -91 1556 -91 
Q 1019 -91 701 211 
Q 384 513 384 1019 
Q 384 1609 779 1909 
Q 1175 2209 1959 2209 
L 2766 2209 
L 2766 2266 
Q 2766 2663 2505 2880 
Q 2244 3097 1772 3097 
Q 1472 3097 1187 3025 
Q 903 2953 641 2809 
L 641 3341 
Q 956 3463 1253 3523 
Q 1550 3584 1831 3584 
Q 2591 3584 2966 3190 
Q 3341 2797 3341 1997 
z
" transform="scale(0.015625)"/>
       <path id="DejaVuSans-67" d="M 2906 1791 
Q 2906 2416 2648 2759 
Q 2391 3103 1925 3103 
Q 1463 3103 1205 2759 
Q 947 2416 947 1791 
Q 947 1169 1205 825 
Q 1463 481 1925 481 
Q 2391 481 2648 825 
Q 2906 1169 2906 1791 
z
M 3481 434 
Q 3481 -459 3084 -895 
Q 2688 -1331 1869 -1331 
Q 1566 -1331 1297 -1286 
Q 1028 -1241 775 -1147 
L 775 -588 
Q 1028 -725 1275 -790 
Q 1522 -856 1778 -856 
Q 2344 -856 2625 -561 
Q 2906 -266 2906 331 
L 2906 616 
Q 2728 306 2450 153 
Q 2172 0 1784 0 
Q 1141 0 747 490 
Q 353 981 353 1791 
Q 353 2603 747 3093 
Q 1141 3584 1784 3584 
Q 2172 3584 2450 3431 
Q 2728 3278 2906 2969 
L 2906 3500 
L 3481 3500 
L 3481 434 
z
" transform="scale(0.015625)"/>
       <path id="DejaVuSans-20" transform="scale(0.015625)"/>
       <path id="DejaVuSans-Oblique-3b4" d="M 3472 4053 
Q 3197 4272 2450 4272 
Q 1659 4272 1588 3906 
Q 1531 3619 2328 3469 
Q 2953 3353 3253 3003 
Q 3616 2581 3447 1716 
Q 3284 888 2763 400 
Q 2238 -91 1488 -91 
Q 741 -91 406 400 
Q 72 888 241 1747 
Q 363 2384 891 2900 
Q 1097 3100 1353 3213 
Q 913 3459 1000 3900 
Q 1166 4750 2544 4750 
Q 3234 4750 3566 4531 
L 3472 4053 
z
M 1753 3056 
Q 1525 2966 1306 2738 
Q 969 2384 847 1747 
Q 722 1113 919 756 
Q 1119 397 1584 397 
Q 2044 397 2381 759 
Q 2722 1122 2838 1716 
Q 2956 2338 2731 2638 
Q 2491 2959 2103 2994 
Q 1906 3013 1753 3056 
z
" transform="scale(0.015625)"/>
      </defs>
      <use xlink:href="#DejaVuSans-41" transform="translate(0 0.78125)"/>
      <use xlink:href="#DejaVuSans-76" transform="translate(68.408203 0.78125)"/>
      <use xlink:href="#DejaVuSans-65" transform="translate(127.587891 0.78125)"/>
      <use xlink:href="#DejaVuSans-72" transform="translate(189.111328 0.78125)"/>
      <use xlink:href="#DejaVuSans-61" transform="translate(230.224609 0.78125)"/>
      <use xlink:href="#DejaVuSans-67" transform="translate(291.503906 0.78125)"/>
      <use xlink:href="#DejaVuSans-65" transform="translate(354.980469 0.78125)"/>
      <use xlink:href="#DejaVuSans-20" transform="translate(416.503906 0.78125)"/>
      <use xlink:href="#DejaVuSans-Oblique-3b4" transform="translate(448.291016 0.78125)"/>
     </g>
    </g>
   </g>
   <g id="line2d_44">
    <path d="M 73.832727 198.035214 
L 80.45833 198.035214 
L 87.083933 198.035214 
L 93.709536 198.035214 
L 100.335139 198.035214 
L 106.960742 198.035214 
L 113.586345 198.035214 
L 120.211948 198.035214 
L 126.837551 198.035214 
L 133.463154 198.035214 
L 140.088757 198.035166 
L 146.71436 198.027978 
L 153.339963 197.841066 
L 159.965566 196.371111 
L 166.591169 191.369205 
L 173.216772 181.972663 
L 179.842375 170.212722 
L 186.467978 158.843773 
L 193.093581 149.429416 
L 199.719184 142.312677 
L 206.344787 137.216374 
L 212.97039 133.684689 
L 219.595993 131.280505 
L 226.221596 129.543132 
L 232.847199 127.572328 
L 239.472801 123.964526 
L 246.098404 117.939318 
L 252.724007 109.999069 
L 259.34961 101.30948 
L 265.975213 92.98588 
L 272.600816 85.774888 
L 279.226419 79.996409 
L 285.852022 75.633867 
L 292.477625 72.482226 
L 299.103228 70.275862 
L 305.728831 68.764638 
L 312.354434 67.744838 
L 318.980037 67.063516 
L 325.60564 66.611355 
L 332.231243 66.312601 
L 338.856846 66.115782 
L 345.482449 65.986366 
L 352.108052 65.901378 
L 358.733655 65.845612 
L 365.359258 65.80904 
L 371.984861 65.785064 
L 378.610464 65.769351 
L 385.236067 65.759053 
L 391.86167 65.752305 
L 398.487273 65.747884 
" clip-path="url(#p48686dbebc)" style="fill: none; stroke: #2ca02c; stroke-width: 1.5; stroke-linecap: square"/>
   </g>
   <g id="line2d_45">
    <path d="M 156.711122 346.6 
L 159.965566 309.197953 
L 166.591169 257.68716 
L 173.216772 222.168781 
L 179.842375 197.965716 
L 186.467978 181.807333 
L 193.093581 171.150373 
L 199.719184 164.157692 
L 206.344787 159.577449 
L 212.97039 156.578645 
L 219.595993 154.609176 
L 226.221596 153.197728 
L 232.847199 151.523617 
L 239.472801 148.520544 
L 246.098404 144.08263 
L 252.724007 139.036886 
L 259.34961 134.039671 
L 265.975213 129.455319 
L 272.600816 125.601023 
L 279.226419 125.700823 
L 285.852022 134.875303 
L 292.477625 148.007546 
L 299.103228 161.788779 
L 305.728831 175.919165 
L 312.354434 190.280667 
L 318.980037 204.794746 
L 325.60564 219.409331 
L 332.231243 234.09001 
L 338.856846 248.8141 
L 345.482449 263.566679 
L 352.108052 278.337943 
L 358.733655 293.121458 
L 365.359258 307.913003 
L 371.984861 322.70981 
L 378.610464 337.510065 
L 382.679117 346.6 
" clip-path="url(#p48686dbebc)" style="fill: none; stroke: #1f77b4; stroke-width: 1.5; stroke-linecap: square"/>
   </g>
   <g id="line2d_46">
    <path d="M 73.832727 208.104424 
L 80.45833 208.104424 
L 87.083933 208.104424 
L 93.709536 208.104424 
L 100.335139 208.104424 
L 106.960742 208.104424 
L 113.586345 208.104424 
L 120.211948 208.104424 
L 126.837551 208.104424 
L 133.463154 208.104424 
L 140.088757 208.104362 
L 146.71436 208.094896 
L 153.339963 207.848858 
L 159.965566 205.941501 
L 166.591169 199.907751 
L 173.216772 190.126693 
L 179.842375 179.9069 
L 186.467978 171.40897 
L 193.093581 165.094161 
L 199.719184 160.664851 
L 206.344787 157.648543 
L 212.97039 155.626826 
L 219.595993 154.281827 
L 226.221596 153.351129 
L 232.847199 152.465687 
L 239.472801 151.122303 
L 246.098404 149.084138 
L 252.724007 146.601822 
L 259.34961 144.125841 
L 265.975213 141.947589 
L 272.600816 140.285131 
L 279.226419 139.110526 
L 285.852022 138.277134 
L 292.477625 137.718468 
L 299.103228 137.354679 
L 305.728831 137.12029 
L 312.354434 136.967834 
L 318.980037 136.870282 
L 325.60564 136.805886 
L 332.231243 136.763776 
L 338.856846 136.73616 
L 345.482449 136.718019 
L 352.108052 136.706112 
L 358.733655 136.698301 
L 365.359258 136.69318 
L 371.984861 136.689823 
L 378.610464 136.687623 
L 385.236067 136.686181 
L 391.86167 136.685237 
L 398.487273 136.684618 
" clip-path="url(#p48686dbebc)" style="fill: none; stroke: #000000; stroke-width: 1.5; stroke-linecap: square"/>
   </g>
   <g id="patch_3">
    <path d="M 57.6 307.584 
L 57.6 41.472 
" style="fill: none; stroke: #000000; stroke-width: 0.8; stroke-linejoin: miter; stroke-linecap: square"/>
   </g>
   <g id="patch_4">
    <path d="M 414.72 307.584 
L 414.72 41.472 
" style="fill: none; stroke: #000000; stroke-width: 0.8; stroke-linejoin: miter; stroke-linecap: square"/>
   </g>
   <g id="patch_5">
    <path d="M 57.6 307.584 
L 414.72 307.584 
" style="fill: none; stroke: #000000; stroke-width: 0.8; stroke-linejoin: miter; stroke-linecap: square"/>
   </g>
   <g id="patch_6">
    <path d="M 57.6 41.472 
L 414.72 41.472 
" style="fill: none; stroke: #000000; stroke-width: 0.8; stroke-linejoin: miter; stroke-linecap: square"/>
   </g>
   <g id="legend_1">
    <g id="patch_7">
     <path d="M 64.6 93.506375 
L 191.085938 93.506375 
Q 193.085938 93.506375 193.085938 91.506375 
L 193.085938 48.472 
Q 193.085938 46.472 191.085938 46.472 
L 64.6 46.472 
Q 62.6 46.472 62.6 48.472 
L 62.6 91.506375 
Q 62.6 93.506375 64.6 93.506375 
z
" style="fill: #ffffff; opacity: 0.8; stroke: #cccccc; stroke-linejoin: miter"/>
    </g>
    <g id="line2d_47">
     <path d="M 66.6 54.570438 
L 76.6 54.570438 
L 86.6 54.570438 
" style="fill: none; stroke: #2ca02c; stroke-width: 1.5; stroke-linecap: square"/>
    </g>
    <g id="text_12">
     <!-- Uniform Proposal -->
     <g transform="translate(94.6 58.070438)scale(0.1 -0.1)">
      <defs>
       <path id="DejaVuSans-55" d="M 556 4666 
L 1191 4666 
L 1191 1831 
Q 1191 1081 1462 751 
Q 1734 422 2344 422 
Q 2950 422 3222 751 
Q 3494 1081 3494 1831 
L 3494 4666 
L 4128 4666 
L 4128 1753 
Q 4128 841 3676 375 
Q 3225 -91 2344 -91 
Q 1459 -91 1007 375 
Q 556 841 556 1753 
L 556 4666 
z
" transform="scale(0.015625)"/>
       <path id="DejaVuSans-6e" d="M 3513 2113 
L 3513 0 
L 2938 0 
L 2938 2094 
Q 2938 2591 2744 2837 
Q 2550 3084 2163 3084 
Q 1697 3084 1428 2787 
Q 1159 2491 1159 1978 
L 1159 0 
L 581 0 
L 581 3500 
L 1159 3500 
L 1159 2956 
Q 1366 3272 1645 3428 
Q 1925 3584 2291 3584 
Q 2894 3584 3203 3211 
Q 3513 2838 3513 2113 
z
" transform="scale(0.015625)"/>
       <path id="DejaVuSans-69" d="M 603 3500 
L 1178 3500 
L 1178 0 
L 603 0 
L 603 3500 
z
M 603 4863 
L 1178 4863 
L 1178 4134 
L 603 4134 
L 603 4863 
z
" transform="scale(0.015625)"/>
       <path id="DejaVuSans-66" d="M 2375 4863 
L 2375 4384 
L 1825 4384 
Q 1516 4384 1395 4259 
Q 1275 4134 1275 3809 
L 1275 3500 
L 2222 3500 
L 2222 3053 
L 1275 3053 
L 1275 0 
L 697 0 
L 697 3053 
L 147 3053 
L 147 3500 
L 697 3500 
L 697 3744 
Q 697 4328 969 4595 
Q 1241 4863 1831 4863 
L 2375 4863 
z
" transform="scale(0.015625)"/>
       <path id="DejaVuSans-6f" d="M 1959 3097 
Q 1497 3097 1228 2736 
Q 959 2375 959 1747 
Q 959 1119 1226 758 
Q 1494 397 1959 397 
Q 2419 397 2687 759 
Q 2956 1122 2956 1747 
Q 2956 2369 2687 2733 
Q 2419 3097 1959 3097 
z
M 1959 3584 
Q 2709 3584 3137 3096 
Q 3566 2609 3566 1747 
Q 3566 888 3137 398 
Q 2709 -91 1959 -91 
Q 1206 -91 779 398 
Q 353 888 353 1747 
Q 353 2609 779 3096 
Q 1206 3584 1959 3584 
z
" transform="scale(0.015625)"/>
       <path id="DejaVuSans-6d" d="M 3328 2828 
Q 3544 3216 3844 3400 
Q 4144 3584 4550 3584 
Q 5097 3584 5394 3201 
Q 5691 2819 5691 2113 
L 5691 0 
L 5113 0 
L 5113 2094 
Q 5113 2597 4934 2840 
Q 4756 3084 4391 3084 
Q 3944 3084 3684 2787 
Q 3425 2491 3425 1978 
L 3425 0 
L 2847 0 
L 2847 2094 
Q 2847 2600 2669 2842 
Q 2491 3084 2119 3084 
Q 1678 3084 1418 2786 
Q 1159 2488 1159 1978 
L 1159 0 
L 581 0 
L 581 3500 
L 1159 3500 
L 1159 2956 
Q 1356 3278 1631 3431 
Q 1906 3584 2284 3584 
Q 2666 3584 2933 3390 
Q 3200 3197 3328 2828 
z
" transform="scale(0.015625)"/>
       <path id="DejaVuSans-50" d="M 1259 4147 
L 1259 2394 
L 2053 2394 
Q 2494 2394 2734 2622 
Q 2975 2850 2975 3272 
Q 2975 3691 2734 3919 
Q 2494 4147 2053 4147 
L 1259 4147 
z
M 628 4666 
L 2053 4666 
Q 2838 4666 3239 4311 
Q 3641 3956 3641 3272 
Q 3641 2581 3239 2228 
Q 2838 1875 2053 1875 
L 1259 1875 
L 1259 0 
L 628 0 
L 628 4666 
z
" transform="scale(0.015625)"/>
       <path id="DejaVuSans-70" d="M 1159 525 
L 1159 -1331 
L 581 -1331 
L 581 3500 
L 1159 3500 
L 1159 2969 
Q 1341 3281 1617 3432 
Q 1894 3584 2278 3584 
Q 2916 3584 3314 3078 
Q 3713 2572 3713 1747 
Q 3713 922 3314 415 
Q 2916 -91 2278 -91 
Q 1894 -91 1617 61 
Q 1341 213 1159 525 
z
M 3116 1747 
Q 3116 2381 2855 2742 
Q 2594 3103 2138 3103 
Q 1681 3103 1420 2742 
Q 1159 2381 1159 1747 
Q 1159 1113 1420 752 
Q 1681 391 2138 391 
Q 2594 391 2855 752 
Q 3116 1113 3116 1747 
z
" transform="scale(0.015625)"/>
       <path id="DejaVuSans-73" d="M 2834 3397 
L 2834 2853 
Q 2591 2978 2328 3040 
Q 2066 3103 1784 3103 
Q 1356 3103 1142 2972 
Q 928 2841 928 2578 
Q 928 2378 1081 2264 
Q 1234 2150 1697 2047 
L 1894 2003 
Q 2506 1872 2764 1633 
Q 3022 1394 3022 966 
Q 3022 478 2636 193 
Q 2250 -91 1575 -91 
Q 1294 -91 989 -36 
Q 684 19 347 128 
L 347 722 
Q 666 556 975 473 
Q 1284 391 1588 391 
Q 1994 391 2212 530 
Q 2431 669 2431 922 
Q 2431 1156 2273 1281 
Q 2116 1406 1581 1522 
L 1381 1569 
Q 847 1681 609 1914 
Q 372 2147 372 2553 
Q 372 3047 722 3315 
Q 1072 3584 1716 3584 
Q 2034 3584 2315 3537 
Q 2597 3491 2834 3397 
z
" transform="scale(0.015625)"/>
       <path id="DejaVuSans-6c" d="M 603 4863 
L 1178 4863 
L 1178 0 
L 603 0 
L 603 4863 
z
" transform="scale(0.015625)"/>
      </defs>
      <use xlink:href="#DejaVuSans-55"/>
      <use xlink:href="#DejaVuSans-6e" x="73.193359"/>
      <use xlink:href="#DejaVuSans-69" x="136.572266"/>
      <use xlink:href="#DejaVuSans-66" x="164.355469"/>
      <use xlink:href="#DejaVuSans-6f" x="199.560547"/>
      <use xlink:href="#DejaVuSans-72" x="260.742188"/>
      <use xlink:href="#DejaVuSans-6d" x="300.105469"/>
      <use xlink:href="#DejaVuSans-20" x="397.517578"/>
      <use xlink:href="#DejaVuSans-50" x="429.304688"/>
      <use xlink:href="#DejaVuSans-72" x="487.857422"/>
      <use xlink:href="#DejaVuSans-6f" x="526.720703"/>
      <use xlink:href="#DejaVuSans-70" x="587.902344"/>
      <use xlink:href="#DejaVuSans-6f" x="651.378906"/>
      <use xlink:href="#DejaVuSans-73" x="712.560547"/>
      <use xlink:href="#DejaVuSans-61" x="764.660156"/>
      <use xlink:href="#DejaVuSans-6c" x="825.939453"/>
     </g>
    </g>
    <g id="line2d_48">
     <path d="M 66.6 69.248563 
L 76.6 69.248563 
L 86.6 69.248563 
" style="fill: none; stroke: #1f77b4; stroke-width: 1.5; stroke-linecap: square"/>
    </g>
    <g id="text_13">
     <!-- Local Proposal -->
     <g transform="translate(94.6 72.748563)scale(0.1 -0.1)">
      <defs>
       <path id="DejaVuSans-4c" d="M 628 4666 
L 1259 4666 
L 1259 531 
L 3531 531 
L 3531 0 
L 628 0 
L 628 4666 
z
" transform="scale(0.015625)"/>
       <path id="DejaVuSans-63" d="M 3122 3366 
L 3122 2828 
Q 2878 2963 2633 3030 
Q 2388 3097 2138 3097 
Q 1578 3097 1268 2742 
Q 959 2388 959 1747 
Q 959 1106 1268 751 
Q 1578 397 2138 397 
Q 2388 397 2633 464 
Q 2878 531 3122 666 
L 3122 134 
Q 2881 22 2623 -34 
Q 2366 -91 2075 -91 
Q 1284 -91 818 406 
Q 353 903 353 1747 
Q 353 2603 823 3093 
Q 1294 3584 2113 3584 
Q 2378 3584 2631 3529 
Q 2884 3475 3122 3366 
z
" transform="scale(0.015625)"/>
      </defs>
      <use xlink:href="#DejaVuSans-4c"/>
      <use xlink:href="#DejaVuSans-6f" x="53.962891"/>
      <use xlink:href="#DejaVuSans-63" x="115.144531"/>
      <use xlink:href="#DejaVuSans-61" x="170.125"/>
      <use xlink:href="#DejaVuSans-6c" x="231.404297"/>
      <use xlink:href="#DejaVuSans-20" x="259.1875"/>
      <use xlink:href="#DejaVuSans-50" x="290.974609"/>
      <use xlink:href="#DejaVuSans-72" x="349.527344"/>
      <use xlink:href="#DejaVuSans-6f" x="388.390625"/>
      <use xlink:href="#DejaVuSans-70" x="449.572266"/>
      <use xlink:href="#DejaVuSans-6f" x="513.048828"/>
      <use xlink:href="#DejaVuSans-73" x="574.230469"/>
      <use xlink:href="#DejaVuSans-61" x="626.330078"/>
      <use xlink:href="#DejaVuSans-6c" x="687.609375"/>
     </g>
    </g>
    <g id="line2d_49">
     <path d="M 66.6 83.926688 
L 76.6 83.926688 
L 86.6 83.926688 
" style="fill: none; stroke: #000000; stroke-width: 1.5; stroke-linecap: square"/>
    </g>
    <g id="text_14">
     <!-- Exchange Proposal -->
     <g transform="translate(94.6 87.426688)scale(0.1 -0.1)">
      <defs>
       <path id="DejaVuSans-45" d="M 628 4666 
L 3578 4666 
L 3578 4134 
L 1259 4134 
L 1259 2753 
L 3481 2753 
L 3481 2222 
L 1259 2222 
L 1259 531 
L 3634 531 
L 3634 0 
L 628 0 
L 628 4666 
z
" transform="scale(0.015625)"/>
       <path id="DejaVuSans-78" d="M 3513 3500 
L 2247 1797 
L 3578 0 
L 2900 0 
L 1881 1375 
L 863 0 
L 184 0 
L 1544 1831 
L 300 3500 
L 978 3500 
L 1906 2253 
L 2834 3500 
L 3513 3500 
z
" transform="scale(0.015625)"/>
       <path id="DejaVuSans-68" d="M 3513 2113 
L 3513 0 
L 2938 0 
L 2938 2094 
Q 2938 2591 2744 2837 
Q 2550 3084 2163 3084 
Q 1697 3084 1428 2787 
Q 1159 2491 1159 1978 
L 1159 0 
L 581 0 
L 581 4863 
L 1159 4863 
L 1159 2956 
Q 1366 3272 1645 3428 
Q 1925 3584 2291 3584 
Q 2894 3584 3203 3211 
Q 3513 2838 3513 2113 
z
" transform="scale(0.015625)"/>
      </defs>
      <use xlink:href="#DejaVuSans-45"/>
      <use xlink:href="#DejaVuSans-78" x="63.183594"/>
      <use xlink:href="#DejaVuSans-63" x="120.613281"/>
      <use xlink:href="#DejaVuSans-68" x="175.59375"/>
      <use xlink:href="#DejaVuSans-61" x="238.972656"/>
      <use xlink:href="#DejaVuSans-6e" x="300.251953"/>
      <use xlink:href="#DejaVuSans-67" x="363.630859"/>
      <use xlink:href="#DejaVuSans-65" x="427.107422"/>
      <use xlink:href="#DejaVuSans-20" x="488.630859"/>
      <use xlink:href="#DejaVuSans-50" x="520.417969"/>
      <use xlink:href="#DejaVuSans-72" x="578.970703"/>
      <use xlink:href="#DejaVuSans-6f" x="617.833984"/>
      <use xlink:href="#DejaVuSans-70" x="679.015625"/>
      <use xlink:href="#DejaVuSans-6f" x="742.492188"/>
      <use xlink:href="#DejaVuSans-73" x="803.673828"/>
      <use xlink:href="#DejaVuSans-61" x="855.773438"/>
      <use xlink:href="#DejaVuSans-6c" x="917.052734"/>
     </g>
    </g>
   </g>
  </g>
 </g>
 <defs>
  <clipPath id="p48686dbebc">
   <rect x="57.6" y="41.472" width="357.12" height="266.112"/>
  </clipPath>
 </defs>
</svg>
